<svg width="18" height="18" viewBox="0 0 18 18" fill="none" xmlns="http://www.w3.org/2000/svg">
<path fill-rule="evenodd" clip-rule="evenodd" d="M13.5 3C13.5 2.80109 13.421 2.61032 13.2803 2.46967C13.1397 2.32902 12.9489 2.25 12.75 2.25C12.5511 2.25 12.3603 2.32902 12.2197 2.46967C12.079 2.61032 12 2.80109 12 3V3.75H3C2.80109 3.75 2.61032 3.82902 2.46967 3.96967C2.32902 4.11032 2.25 4.30109 2.25 4.5C2.25 4.69891 2.32902 4.88968 2.46967 5.03033C2.61032 5.17098 2.80109 5.25 3 5.25H12V6C12 6.19891 12.079 6.38968 12.2197 6.53033C12.3603 6.67098 12.5511 6.75 12.75 6.75C12.9489 6.75 13.1397 6.67098 13.2803 6.53033C13.421 6.38968 13.5 6.19891 13.5 6V5.25H15C15.1989 5.25 15.3897 5.17098 15.5303 5.03033C15.671 4.88968 15.75 4.69891 15.75 4.5C15.75 4.30109 15.671 4.11032 15.5303 3.96967C15.3897 3.82902 15.1989 3.75 15 3.75H13.5V3ZM3 8.25C2.80109 8.25 2.61032 8.32902 2.46967 8.46967C2.32902 8.61032 2.25 8.80109 2.25 9C2.25 9.19891 2.32902 9.38968 2.46967 9.53033C2.61032 9.67098 2.80109 9.75 3 9.75H4.5V10.5C4.5 10.6989 4.57902 10.8897 4.71967 11.0303C4.86032 11.171 5.05109 11.25 5.25 11.25C5.44891 11.25 5.63968 11.171 5.78033 11.0303C5.92098 10.8897 6 10.6989 6 10.5V9.75H15C15.1989 9.75 15.3897 9.67098 15.5303 9.53033C15.671 9.38968 15.75 9.19891 15.75 9C15.75 8.80109 15.671 8.61032 15.5303 8.46967C15.3897 8.32902 15.1989 8.25 15 8.25H6V7.5C6 7.30109 5.92098 7.11032 5.78033 6.96967C5.63968 6.82902 5.44891 6.75 5.25 6.75C5.05109 6.75 4.86032 6.82902 4.71967 6.96967C4.57902 7.11032 4.5 7.30109 4.5 7.5V8.25H3ZM2.25 13.5C2.25 13.3011 2.32902 13.1103 2.46967 12.9697C2.61032 12.829 2.80109 12.75 3 12.75H12V12C12 11.8011 12.079 11.6103 12.2197 11.4697C12.3603 11.329 12.5511 11.25 12.75 11.25C12.9489 11.25 13.1397 11.329 13.2803 11.4697C13.421 11.6103 13.5 11.8011 13.5 12V12.75H15C15.1989 12.75 15.3897 12.829 15.5303 12.9697C15.671 13.1103 15.75 13.3011 15.75 13.5C15.75 13.6989 15.671 13.8897 15.5303 14.0303C15.3897 14.171 15.1989 14.25 15 14.25H13.5V15C13.5 15.1989 13.421 15.3897 13.2803 15.5303C13.1397 15.671 12.9489 15.75 12.75 15.75C12.5511 15.75 12.3603 15.671 12.2197 15.5303C12.079 15.3897 12 15.1989 12 15V14.25H3C2.80109 14.25 2.61032 14.171 2.46967 14.0303C2.32902 13.8897 2.25 13.6989 2.25 13.5Z" fill="#484848"/>
</svg>
