<svg width="32" height="25" viewBox="0 0 32 25" fill="none" xmlns="http://www.w3.org/2000/svg">
<path d="M1.58333 6.16667H30.0833C30.5033 6.16667 30.906 5.99985 31.2029 5.70292C31.4999 5.40599 31.6667 5.00326 31.6667 4.58333C31.6667 4.16341 31.4999 3.76068 31.2029 3.46375C30.906 3.16682 30.5033 3 30.0833 3H1.58333C1.16341 3 0.76068 3.16682 0.463748 3.46375C0.166815 3.76068 0 4.16341 0 4.58333C0 5.00326 0.166815 5.40599 0.463748 5.70292C0.76068 5.99985 1.16341 6.16667 1.58333 6.16667ZM30.0833 18.8333H1.58333C1.16341 18.8333 0.76068 19.0001 0.463748 19.2971C0.166815 19.594 0 19.9967 0 20.4167C0 20.8366 0.166815 21.2393 0.463748 21.5363C0.76068 21.8332 1.16341 22 1.58333 22H30.0833C30.5033 22 30.906 21.8332 31.2029 21.5363C31.4999 21.2393 31.6667 20.8366 31.6667 20.4167C31.6667 19.9967 31.4999 19.594 31.2029 19.2971C30.906 19.0001 30.5033 18.8333 30.0833 18.8333ZM30.0833 10.9167H1.58333C1.16341 10.9167 0.76068 11.0835 0.463748 11.3804C0.166815 11.6773 0 12.0801 0 12.5C0 12.9199 0.166815 13.3227 0.463748 13.6196C0.76068 13.9165 1.16341 14.0833 1.58333 14.0833H30.0833C30.5033 14.0833 30.906 13.9165 31.2029 13.6196C31.4999 13.3227 31.6667 12.9199 31.6667 12.5C31.6667 12.0801 31.4999 11.6773 31.2029 11.3804C30.906 11.0835 30.5033 10.9167 30.0833 10.9167Z" fill="#F5F5F5"/>
</svg>
