<svg width="32" height="32" viewBox="0 0 32 32" fill="none" xmlns="http://www.w3.org/2000/svg">
<path d="M5.99984 16.1667C5.0665 16.1667 4.27761 15.8444 3.63317 15.2C2.98873 14.5555 2.6665 13.7667 2.6665 12.8333C2.6665 11.9 2.98873 11.1111 3.63317 10.4667C4.27761 9.82221 5.0665 9.49999 5.99984 9.49999C6.93317 9.49999 7.72206 9.82221 8.3665 10.4667C9.01095 11.1111 9.33317 11.9 9.33317 12.8333C9.33317 13.7667 9.01095 14.5555 8.3665 15.2C7.72206 15.8444 6.93317 16.1667 5.99984 16.1667ZM11.9998 10.8333C11.0665 10.8333 10.2776 10.5111 9.63317 9.86666C8.98873 9.22221 8.6665 8.43332 8.6665 7.49999C8.6665 6.56666 8.98873 5.77777 9.63317 5.13332C10.2776 4.48888 11.0665 4.16666 11.9998 4.16666C12.9332 4.16666 13.7221 4.48888 14.3665 5.13332C15.0109 5.77777 15.3332 6.56666 15.3332 7.49999C15.3332 8.43332 15.0109 9.22221 14.3665 9.86666C13.7221 10.5111 12.9332 10.8333 11.9998 10.8333ZM19.9998 10.8333C19.0665 10.8333 18.2776 10.5111 17.6332 9.86666C16.9887 9.22221 16.6665 8.43332 16.6665 7.49999C16.6665 6.56666 16.9887 5.77777 17.6332 5.13332C18.2776 4.48888 19.0665 4.16666 19.9998 4.16666C20.9332 4.16666 21.7221 4.48888 22.3665 5.13332C23.0109 5.77777 23.3332 6.56666 23.3332 7.49999C23.3332 8.43332 23.0109 9.22221 22.3665 9.86666C21.7221 10.5111 20.9332 10.8333 19.9998 10.8333ZM25.9998 16.1667C25.0665 16.1667 24.2776 15.8444 23.6332 15.2C22.9887 14.5555 22.6665 13.7667 22.6665 12.8333C22.6665 11.9 22.9887 11.1111 23.6332 10.4667C24.2776 9.82221 25.0665 9.49999 25.9998 9.49999C26.9332 9.49999 27.7221 9.82221 28.3665 10.4667C29.0109 11.1111 29.3332 11.9 29.3332 12.8333C29.3332 13.7667 29.0109 14.5555 28.3665 15.2C27.7221 15.8444 26.9332 16.1667 25.9998 16.1667ZM8.8665 29.5C7.8665 29.5 7.02739 29.1169 6.34917 28.3507C5.67095 27.5844 5.33228 26.6787 5.33317 25.6333C5.33317 24.4778 5.72784 23.4667 6.51717 22.6C7.3065 21.7333 8.08961 20.8778 8.8665 20.0333C9.51095 19.3444 10.0665 18.5947 10.5332 17.784C10.9998 16.9733 11.5554 16.212 12.1998 15.5C12.6887 14.9222 13.2554 14.4444 13.8998 14.0667C14.5443 13.6889 15.2443 13.5 15.9998 13.5C16.7554 13.5 17.4554 13.6778 18.0998 14.0333C18.7443 14.3889 19.3109 14.8555 19.7998 15.4333C20.4221 16.1444 20.9723 16.9111 21.4505 17.7333C21.9287 18.5555 22.4896 19.3222 23.1332 20.0333C23.9109 20.8778 24.6941 21.7333 25.4825 22.6C26.2709 23.4667 26.6656 24.4778 26.6665 25.6333C26.6665 26.6778 26.3274 27.5835 25.6492 28.3507C24.9709 29.1178 24.1323 29.5009 23.1332 29.5C21.9332 29.5 20.7443 29.4 19.5665 29.2C18.3887 29 17.1998 28.9 15.9998 28.9C14.7998 28.9 13.6109 29 12.4332 29.2C11.2554 29.4 10.0665 29.5 8.8665 29.5Z" fill="#484848"/>
</svg>
