<svg width="32" height="32" viewBox="0 0 32 32" fill="none" xmlns="http://www.w3.org/2000/svg">
<path d="M16 28C15.0667 28 14.2778 27.6778 13.6333 27.0333C12.9889 26.3889 12.6667 25.6 12.6667 24.6667C12.6667 23.7333 12.9889 22.9445 13.6333 22.3C14.2778 21.6556 15.0667 21.3333 16 21.3333C16.9333 21.3333 17.7222 21.6556 18.3667 22.3C19.0111 22.9445 19.3333 23.7333 19.3333 24.6667C19.3333 25.6 19.0111 26.3889 18.3667 27.0333C17.7222 27.6778 16.9333 28 16 28ZM8.46667 20.4667L5.66667 17.6C6.97778 16.2889 8.51689 15.2502 10.284 14.484C12.0511 13.7178 13.9564 13.3342 16 13.3333C18.0436 13.3325 19.9493 13.7213 21.7173 14.5C23.4853 15.2787 25.024 16.3342 26.3333 17.6667L23.5333 20.4667C22.5556 19.4889 21.4222 18.7222 20.1333 18.1667C18.8444 17.6111 17.4667 17.3333 16 17.3333C14.5333 17.3333 13.1556 17.6111 11.8667 18.1667C10.5778 18.7222 9.44444 19.4889 8.46667 20.4667ZM2.8 14.8L0 12C2.04444 9.91112 4.43333 8.27779 7.16667 7.10001C9.9 5.92223 12.8444 5.33334 16 5.33334C19.1556 5.33334 22.1 5.92223 24.8333 7.10001C27.5667 8.27779 29.9556 9.91112 32 12L29.2 14.8C27.4889 13.0889 25.5058 11.7502 23.2507 10.784C20.9956 9.81779 18.5787 9.33423 16 9.33334C13.4213 9.33245 11.0049 9.81601 8.75067 10.784C6.49644 11.752 4.51289 13.0907 2.8 14.8Z" fill="#484848"/>
</svg>
