<svg width="32" height="32" viewBox="0 0 32 32" fill="none" xmlns="http://www.w3.org/2000/svg">
<path d="M18 8H10V24H14V20H18C18.7879 20 19.5681 19.8448 20.2961 19.5433C21.0241 19.2417 21.6855 18.7998 22.2426 18.2426C22.7998 17.6855 23.2417 17.0241 23.5433 16.2961C23.8448 15.5681 24 14.7879 24 14C24 13.2121 23.8448 12.4319 23.5433 11.7039C23.2417 10.9759 22.7998 10.3145 22.2426 9.75736C21.6855 9.20021 21.0241 8.75825 20.2961 8.45672C19.5681 8.15519 18.7879 8 18 8ZM18 16H14V12H18C18.5304 12 19.0391 12.2107 19.4142 12.5858C19.7893 12.9609 20 13.4696 20 14C20 14.5304 19.7893 15.0391 19.4142 15.4142C19.0391 15.7893 18.5304 16 18 16Z" fill="#484848"/>
<path d="M30 2H2V30H30V2ZM6 26V6H26V26H6Z" fill="#484848"/>
</svg>
