<svg width="271" height="50" viewBox="0 0 271 50" fill="none" xmlns="http://www.w3.org/2000/svg">
<path d="M160.3 21C160.14 21 160.013 20.9667 159.92 20.9C159.84 20.82 159.78 20.6933 159.74 20.52L157 7.64C156.987 7.58667 156.973 7.54 156.96 7.5C156.96 7.44667 156.96 7.41333 156.96 7.4C156.96 7.29333 157 7.2 157.08 7.12C157.16 7.04 157.253 7 157.36 7H157.78C158.033 7 158.18 7.1 158.22 7.3L160.56 18.7L163.04 10.56C163.08 10.44 163.147 10.3333 163.24 10.24C163.347 10.1467 163.487 10.1 163.66 10.1H164.1C164.287 10.1 164.427 10.1467 164.52 10.24C164.613 10.3333 164.68 10.44 164.72 10.56L167.2 18.7L169.54 7.3C169.58 7.1 169.727 7 169.98 7H170.4C170.507 7 170.6 7.04 170.68 7.12C170.76 7.2 170.8 7.29333 170.8 7.4C170.8 7.41333 170.793 7.44667 170.78 7.5C170.78 7.54 170.773 7.58667 170.76 7.64L168.02 20.52C167.98 20.6933 167.913 20.82 167.82 20.9C167.74 20.9667 167.62 21 167.46 21H167.16C167 21 166.867 20.96 166.76 20.88C166.667 20.8 166.593 20.68 166.54 20.52L163.88 12.08L161.22 20.52C161.167 20.68 161.087 20.8 160.98 20.88C160.887 20.96 160.76 21 160.6 21H160.3ZM173.842 21C173.708 21 173.602 20.96 173.522 20.88C173.442 20.8 173.402 20.6933 173.402 20.56V7.24C173.402 7.10667 173.442 7 173.522 6.92C173.602 6.84 173.708 6.8 173.842 6.8H174.182C174.315 6.8 174.422 6.84 174.502 6.92C174.582 7 174.622 7.10667 174.622 7.24V11.98C174.982 11.5133 175.415 11.1333 175.922 10.84C176.442 10.5467 177.128 10.4 177.982 10.4C178.888 10.4 179.642 10.6 180.242 11C180.855 11.3867 181.308 11.92 181.602 12.6C181.908 13.2667 182.062 14.0267 182.062 14.88V20.56C182.062 20.6933 182.022 20.8 181.942 20.88C181.862 20.96 181.755 21 181.622 21H181.282C181.148 21 181.042 20.96 180.962 20.88C180.882 20.8 180.842 20.6933 180.842 20.56V14.98C180.842 13.9133 180.582 13.08 180.062 12.48C179.542 11.8667 178.782 11.56 177.782 11.56C176.835 11.56 176.068 11.8667 175.482 12.48C174.908 13.08 174.622 13.9133 174.622 14.98V20.56C174.622 20.6933 174.582 20.8 174.502 20.88C174.422 20.96 174.315 21 174.182 21H173.842ZM189.058 21.2C187.765 21.2 186.738 20.78 185.978 19.94C185.218 19.0867 184.785 17.9733 184.678 16.6C184.665 16.4 184.658 16.1333 184.658 15.8C184.658 15.4667 184.665 15.2 184.678 15C184.745 14.0933 184.958 13.2933 185.318 12.6C185.678 11.9067 186.171 11.3667 186.798 10.98C187.438 10.5933 188.191 10.4 189.058 10.4C189.991 10.4 190.785 10.6067 191.438 11.02C192.091 11.4333 192.591 12.0267 192.938 12.8C193.298 13.5733 193.478 14.4933 193.478 15.56V15.86C193.478 15.9933 193.431 16.1 193.338 16.18C193.258 16.26 193.151 16.3 193.018 16.3H185.898C185.898 16.3 185.898 16.3267 185.898 16.38C185.898 16.4333 185.898 16.4733 185.898 16.5C185.925 17.1 186.065 17.6733 186.318 18.22C186.571 18.7533 186.931 19.1933 187.398 19.54C187.865 19.8733 188.418 20.04 189.058 20.04C189.631 20.04 190.105 19.9533 190.478 19.78C190.865 19.6067 191.171 19.42 191.398 19.22C191.625 19.0067 191.771 18.8467 191.838 18.74C191.958 18.5667 192.051 18.4667 192.118 18.44C192.185 18.4 192.291 18.38 192.438 18.38H192.758C192.878 18.38 192.978 18.42 193.058 18.5C193.151 18.5667 193.191 18.66 193.178 18.78C193.165 18.9667 193.058 19.2 192.858 19.48C192.671 19.7467 192.398 20.0133 192.038 20.28C191.691 20.5467 191.265 20.7667 190.758 20.94C190.251 21.1133 189.685 21.2 189.058 21.2ZM185.898 15.18H192.258V15.1C192.258 14.4333 192.131 13.8333 191.878 13.3C191.625 12.7667 191.258 12.3467 190.778 12.04C190.298 11.72 189.725 11.56 189.058 11.56C188.391 11.56 187.818 11.72 187.338 12.04C186.871 12.3467 186.511 12.7667 186.258 13.3C186.018 13.8333 185.898 14.4333 185.898 15.1V15.18ZM196.556 21C196.423 21 196.316 20.96 196.236 20.88C196.156 20.8 196.116 20.6933 196.116 20.56V11.04C196.116 10.9067 196.156 10.8 196.236 10.72C196.316 10.64 196.423 10.6 196.556 10.6H196.896C197.029 10.6 197.136 10.64 197.216 10.72C197.296 10.8 197.336 10.9067 197.336 11.04V11.98C197.696 11.5133 198.129 11.1333 198.636 10.84C199.156 10.5467 199.843 10.4 200.696 10.4C201.603 10.4 202.356 10.6 202.956 11C203.569 11.3867 204.023 11.92 204.316 12.6C204.623 13.2667 204.776 14.0267 204.776 14.88V20.56C204.776 20.6933 204.736 20.8 204.656 20.88C204.576 20.96 204.469 21 204.336 21H203.996C203.863 21 203.756 20.96 203.676 20.88C203.596 20.8 203.556 20.6933 203.556 20.56V14.98C203.556 13.9133 203.296 13.08 202.776 12.48C202.256 11.8667 201.496 11.56 200.496 11.56C199.549 11.56 198.783 11.8667 198.196 12.48C197.623 13.08 197.336 13.9133 197.336 14.98V20.56C197.336 20.6933 197.296 20.8 197.216 20.88C197.136 20.96 197.029 21 196.896 21H196.556ZM213.509 21C213.376 21 213.269 20.96 213.189 20.88C213.109 20.8 213.069 20.6933 213.069 20.56V11.04C213.069 10.9067 213.109 10.8 213.189 10.72C213.269 10.64 213.376 10.6 213.509 10.6H213.849C213.983 10.6 214.089 10.64 214.169 10.72C214.249 10.8 214.289 10.9067 214.289 11.04V11.98C214.649 11.5133 215.083 11.1333 215.589 10.84C216.109 10.5467 216.796 10.4 217.649 10.4C218.556 10.4 219.309 10.6 219.909 11C220.523 11.3867 220.976 11.92 221.269 12.6C221.576 13.2667 221.729 14.0267 221.729 14.88V20.56C221.729 20.6933 221.689 20.8 221.609 20.88C221.529 20.96 221.423 21 221.289 21H220.949C220.816 21 220.709 20.96 220.629 20.88C220.549 20.8 220.509 20.6933 220.509 20.56V14.98C220.509 13.9133 220.249 13.08 219.729 12.48C219.209 11.8667 218.449 11.56 217.449 11.56C216.503 11.56 215.736 11.8667 215.149 12.48C214.576 13.08 214.289 13.9133 214.289 14.98V20.56C214.289 20.6933 214.249 20.8 214.169 20.88C214.089 20.96 213.983 21 213.849 21H213.509ZM227.666 21.2C227.026 21.2 226.433 21.0667 225.886 20.8C225.353 20.5333 224.919 20.18 224.586 19.74C224.253 19.2867 224.086 18.78 224.086 18.22C224.086 17.3133 224.453 16.5867 225.186 16.04C225.919 15.4933 226.873 15.14 228.046 14.98L231.206 14.54V13.84C231.206 13.1333 230.986 12.58 230.546 12.18C230.119 11.7667 229.433 11.56 228.486 11.56C227.793 11.56 227.233 11.7 226.806 11.98C226.379 12.2467 226.086 12.6 225.926 13.04C225.859 13.24 225.733 13.34 225.546 13.34H225.226C225.066 13.34 224.953 13.3 224.886 13.22C224.819 13.1267 224.786 13.02 224.786 12.9C224.786 12.7133 224.853 12.48 224.986 12.2C225.133 11.92 225.353 11.6467 225.646 11.38C225.939 11.1 226.319 10.8667 226.786 10.68C227.253 10.4933 227.819 10.4 228.486 10.4C229.273 10.4 229.919 10.5067 230.426 10.72C230.946 10.9333 231.346 11.2133 231.626 11.56C231.919 11.8933 232.126 12.2667 232.246 12.68C232.366 13.0933 232.426 13.5 232.426 13.9V20.56C232.426 20.6933 232.386 20.8 232.306 20.88C232.226 20.96 232.119 21 231.986 21H231.646C231.513 21 231.406 20.96 231.326 20.88C231.246 20.8 231.206 20.6933 231.206 20.56V19.62C231.046 19.86 230.819 20.1 230.526 20.34C230.233 20.58 229.853 20.7867 229.386 20.96C228.933 21.12 228.359 21.2 227.666 21.2ZM227.866 20.04C228.479 20.04 229.039 19.9067 229.546 19.64C230.053 19.3733 230.453 18.9667 230.746 18.42C231.053 17.86 231.206 17.16 231.206 16.32V15.64L228.626 16C227.533 16.1467 226.706 16.4 226.146 16.76C225.586 17.12 225.306 17.5733 225.306 18.12C225.306 18.56 225.433 18.92 225.686 19.2C225.939 19.48 226.259 19.6933 226.646 19.84C227.046 19.9733 227.453 20.04 227.866 20.04ZM238.991 21C238.298 21 237.751 20.8533 237.351 20.56C236.951 20.2667 236.671 19.8667 236.511 19.36C236.351 18.8533 236.271 18.2867 236.271 17.66V11.76H234.711C234.578 11.76 234.471 11.72 234.391 11.64C234.311 11.56 234.271 11.4533 234.271 11.32V11.04C234.271 10.9067 234.311 10.8 234.391 10.72C234.471 10.64 234.578 10.6 234.711 10.6H236.271V7.24C236.271 7.10667 236.311 7 236.391 6.92C236.471 6.84 236.578 6.8 236.711 6.8H237.051C237.184 6.8 237.291 6.84 237.371 6.92C237.451 7 237.491 7.10667 237.491 7.24V10.6H239.971C240.104 10.6 240.211 10.64 240.291 10.72C240.371 10.8 240.411 10.9067 240.411 11.04V11.32C240.411 11.4533 240.371 11.56 240.291 11.64C240.211 11.72 240.104 11.76 239.971 11.76H237.491V17.58C237.491 18.2867 237.604 18.84 237.831 19.24C238.071 19.64 238.491 19.84 239.091 19.84H240.171C240.304 19.84 240.411 19.88 240.491 19.96C240.571 20.04 240.611 20.1467 240.611 20.28V20.56C240.611 20.6933 240.571 20.8 240.491 20.88C240.411 20.96 240.304 21 240.171 21H238.991ZM246.579 21.2C245.672 21.2 244.919 21.0067 244.319 20.62C243.732 20.22 243.292 19.68 242.999 19C242.719 18.32 242.579 17.56 242.579 16.72V11.04C242.579 10.9067 242.619 10.8 242.699 10.72C242.779 10.64 242.885 10.6 243.019 10.6H243.359C243.492 10.6 243.599 10.64 243.679 10.72C243.759 10.8 243.799 10.9067 243.799 11.04V16.62C243.799 18.9 244.792 20.04 246.779 20.04C247.725 20.04 248.485 19.74 249.059 19.14C249.632 18.5267 249.919 17.6867 249.919 16.62V11.04C249.919 10.9067 249.959 10.8 250.039 10.72C250.119 10.64 250.225 10.6 250.359 10.6H250.699C250.832 10.6 250.939 10.64 251.019 10.72C251.099 10.8 251.139 10.9067 251.139 11.04V20.56C251.139 20.6933 251.099 20.8 251.019 20.88C250.939 20.96 250.832 21 250.699 21H250.359C250.225 21 250.119 20.96 250.039 20.88C249.959 20.8 249.919 20.6933 249.919 20.56V19.62C249.559 20.0867 249.125 20.4667 248.619 20.76C248.125 21.0533 247.445 21.2 246.579 21.2ZM254.818 21C254.684 21 254.578 20.96 254.498 20.88C254.418 20.8 254.378 20.6933 254.378 20.56V11.06C254.378 10.9267 254.418 10.82 254.498 10.74C254.578 10.6467 254.684 10.6 254.818 10.6H255.138C255.271 10.6 255.378 10.6467 255.458 10.74C255.551 10.82 255.598 10.9267 255.598 11.06V11.98C255.838 11.5133 256.184 11.1667 256.638 10.94C257.091 10.7133 257.651 10.6 258.318 10.6H259.058C259.191 10.6 259.298 10.64 259.378 10.72C259.458 10.8 259.498 10.9067 259.498 11.04V11.32C259.498 11.4533 259.458 11.56 259.378 11.64C259.298 11.72 259.191 11.76 259.058 11.76H258.198C257.398 11.76 256.764 11.9933 256.298 12.46C255.831 12.9267 255.598 13.56 255.598 14.36V20.56C255.598 20.6933 255.551 20.8 255.458 20.88C255.378 20.96 255.271 21 255.138 21H254.818ZM264.957 21.2C263.663 21.2 262.637 20.78 261.877 19.94C261.117 19.0867 260.683 17.9733 260.577 16.6C260.563 16.4 260.557 16.1333 260.557 15.8C260.557 15.4667 260.563 15.2 260.577 15C260.643 14.0933 260.857 13.2933 261.217 12.6C261.577 11.9067 262.07 11.3667 262.697 10.98C263.337 10.5933 264.09 10.4 264.957 10.4C265.89 10.4 266.683 10.6067 267.337 11.02C267.99 11.4333 268.49 12.0267 268.837 12.8C269.197 13.5733 269.377 14.4933 269.377 15.56V15.86C269.377 15.9933 269.33 16.1 269.237 16.18C269.157 16.26 269.05 16.3 268.917 16.3H261.797C261.797 16.3 261.797 16.3267 261.797 16.38C261.797 16.4333 261.797 16.4733 261.797 16.5C261.823 17.1 261.963 17.6733 262.217 18.22C262.47 18.7533 262.83 19.1933 263.297 19.54C263.763 19.8733 264.317 20.04 264.957 20.04C265.53 20.04 266.003 19.9533 266.377 19.78C266.763 19.6067 267.07 19.42 267.297 19.22C267.523 19.0067 267.67 18.8467 267.737 18.74C267.857 18.5667 267.95 18.4667 268.017 18.44C268.083 18.4 268.19 18.38 268.337 18.38H268.657C268.777 18.38 268.877 18.42 268.957 18.5C269.05 18.5667 269.09 18.66 269.077 18.78C269.063 18.9667 268.957 19.2 268.757 19.48C268.57 19.7467 268.297 20.0133 267.937 20.28C267.59 20.5467 267.163 20.7667 266.657 20.94C266.15 21.1133 265.583 21.2 264.957 21.2ZM261.797 15.18H268.157V15.1C268.157 14.4333 268.03 13.8333 267.777 13.3C267.523 12.7667 267.157 12.3467 266.677 12.04C266.197 11.72 265.623 11.56 264.957 11.56C264.29 11.56 263.717 11.72 263.237 12.04C262.77 12.3467 262.41 12.7667 262.157 13.3C261.917 13.8333 261.797 14.4333 261.797 15.1V15.18ZM161.56 45.2C160.627 45.2 159.833 45.02 159.18 44.66C158.527 44.2867 158.027 43.7533 157.68 43.06C157.347 42.3667 157.167 41.5467 157.14 40.6C157.127 40.4 157.12 40.1333 157.12 39.8C157.12 39.4667 157.127 39.2 157.14 39C157.167 38.04 157.347 37.22 157.68 36.54C158.027 35.8467 158.527 35.32 159.18 34.96C159.833 34.5867 160.627 34.4 161.56 34.4C162.267 34.4 162.873 34.5 163.38 34.7C163.9 34.8867 164.327 35.14 164.66 35.46C164.993 35.7667 165.247 36.1067 165.42 36.48C165.593 36.8533 165.687 37.22 165.7 37.58C165.713 37.7133 165.673 37.82 165.58 37.9C165.487 37.98 165.38 38.02 165.26 38.02H164.98C164.847 38.02 164.747 37.9933 164.68 37.94C164.627 37.8733 164.567 37.76 164.5 37.6C164.22 36.84 163.833 36.3133 163.34 36.02C162.86 35.7133 162.267 35.56 161.56 35.56C160.653 35.56 159.9 35.84 159.3 36.4C158.713 36.9467 158.4 37.8467 158.36 39.1C158.333 39.5667 158.333 40.0333 158.36 40.5C158.4 41.7533 158.713 42.66 159.3 43.22C159.9 43.7667 160.653 44.04 161.56 44.04C162.267 44.04 162.86 43.8933 163.34 43.6C163.833 43.2933 164.22 42.76 164.5 42C164.567 41.84 164.627 41.7333 164.68 41.68C164.747 41.6133 164.847 41.58 164.98 41.58H165.26C165.38 41.58 165.487 41.62 165.58 41.7C165.673 41.78 165.713 41.8867 165.7 42.02C165.687 42.3133 165.627 42.6067 165.52 42.9C165.413 43.1933 165.247 43.48 165.02 43.76C164.807 44.04 164.54 44.2867 164.22 44.5C163.9 44.7133 163.513 44.88 163.06 45C162.62 45.1333 162.12 45.2 161.56 45.2ZM171.143 45.2C170.503 45.2 169.909 45.0667 169.363 44.8C168.829 44.5333 168.396 44.18 168.063 43.74C167.729 43.2867 167.563 42.78 167.563 42.22C167.563 41.3133 167.929 40.5867 168.663 40.04C169.396 39.4933 170.349 39.14 171.523 38.98L174.683 38.54V37.84C174.683 37.1333 174.463 36.58 174.023 36.18C173.596 35.7667 172.909 35.56 171.963 35.56C171.269 35.56 170.709 35.7 170.283 35.98C169.856 36.2467 169.563 36.6 169.403 37.04C169.336 37.24 169.209 37.34 169.023 37.34H168.703C168.543 37.34 168.429 37.3 168.363 37.22C168.296 37.1267 168.263 37.02 168.263 36.9C168.263 36.7133 168.329 36.48 168.463 36.2C168.609 35.92 168.829 35.6467 169.123 35.38C169.416 35.1 169.796 34.8667 170.263 34.68C170.729 34.4933 171.296 34.4 171.963 34.4C172.749 34.4 173.396 34.5067 173.903 34.72C174.423 34.9333 174.823 35.2133 175.103 35.56C175.396 35.8933 175.603 36.2667 175.723 36.68C175.843 37.0933 175.903 37.5 175.903 37.9V44.56C175.903 44.6933 175.863 44.8 175.783 44.88C175.703 44.96 175.596 45 175.463 45H175.123C174.989 45 174.883 44.96 174.803 44.88C174.723 44.8 174.683 44.6933 174.683 44.56V43.62C174.523 43.86 174.296 44.1 174.003 44.34C173.709 44.58 173.329 44.7867 172.863 44.96C172.409 45.12 171.836 45.2 171.143 45.2ZM171.343 44.04C171.956 44.04 172.516 43.9067 173.023 43.64C173.529 43.3733 173.929 42.9667 174.223 42.42C174.529 41.86 174.683 41.16 174.683 40.32V39.64L172.103 40C171.009 40.1467 170.183 40.4 169.623 40.76C169.063 41.12 168.783 41.5733 168.783 42.12C168.783 42.56 168.909 42.92 169.163 43.2C169.416 43.48 169.736 43.6933 170.123 43.84C170.523 43.9733 170.929 44.04 171.343 44.04ZM179.525 45C179.392 45 179.285 44.96 179.205 44.88C179.125 44.8 179.085 44.6933 179.085 44.56V31.24C179.085 31.1067 179.125 31 179.205 30.92C179.285 30.84 179.392 30.8 179.525 30.8H179.865C179.999 30.8 180.105 30.84 180.185 30.92C180.265 31 180.305 31.1067 180.305 31.24V44.56C180.305 44.6933 180.265 44.8 180.185 44.88C180.105 44.96 179.999 45 179.865 45H179.525ZM184.018 45C183.884 45 183.778 44.96 183.698 44.88C183.618 44.8 183.578 44.6933 183.578 44.56V31.24C183.578 31.1067 183.618 31 183.698 30.92C183.778 30.84 183.884 30.8 184.018 30.8H184.358C184.491 30.8 184.598 30.84 184.678 30.92C184.758 31 184.798 31.1067 184.798 31.24V44.56C184.798 44.6933 184.758 44.8 184.678 44.88C184.598 44.96 184.491 45 184.358 45H184.018ZM191.35 45.2C190.656 45.2 190.056 45.1067 189.55 44.92C189.056 44.7333 188.65 44.5133 188.33 44.26C188.01 43.9933 187.77 43.7333 187.61 43.48C187.463 43.2267 187.383 43.0333 187.37 42.9C187.356 42.7533 187.403 42.6467 187.51 42.58C187.616 42.5 187.716 42.46 187.81 42.46H188.11C188.19 42.46 188.256 42.4733 188.31 42.5C188.376 42.5267 188.456 42.6 188.55 42.72C188.723 42.9467 188.923 43.1667 189.15 43.38C189.376 43.58 189.663 43.74 190.01 43.86C190.37 43.98 190.816 44.04 191.35 44.04C192.15 44.04 192.81 43.8867 193.33 43.58C193.85 43.2733 194.11 42.82 194.11 42.22C194.11 41.8467 194.003 41.5467 193.79 41.32C193.59 41.0933 193.243 40.8933 192.75 40.72C192.256 40.5467 191.59 40.3667 190.75 40.18C189.91 39.98 189.263 39.74 188.81 39.46C188.37 39.18 188.07 38.86 187.91 38.5C187.75 38.1267 187.67 37.7267 187.67 37.3C187.67 36.8333 187.803 36.38 188.07 35.94C188.336 35.4867 188.73 35.12 189.25 34.84C189.783 34.5467 190.45 34.4 191.25 34.4C191.903 34.4 192.456 34.4867 192.91 34.66C193.376 34.8333 193.756 35.0467 194.05 35.3C194.343 35.54 194.556 35.78 194.69 36.02C194.836 36.26 194.916 36.4533 194.93 36.6C194.943 36.7333 194.903 36.84 194.81 36.92C194.716 37 194.61 37.04 194.49 37.04H194.19C194.083 37.04 193.996 37.02 193.93 36.98C193.863 36.9267 193.803 36.86 193.75 36.78C193.616 36.5667 193.456 36.3667 193.27 36.18C193.083 35.9933 192.83 35.8467 192.51 35.74C192.203 35.62 191.783 35.56 191.25 35.56C190.45 35.56 189.856 35.7267 189.47 36.06C189.083 36.38 188.89 36.7933 188.89 37.3C188.89 37.5933 188.97 37.8533 189.13 38.08C189.29 38.2933 189.59 38.4933 190.03 38.68C190.47 38.8533 191.11 39.04 191.95 39.24C192.803 39.4267 193.476 39.66 193.97 39.94C194.463 40.2067 194.81 40.5267 195.01 40.9C195.223 41.2733 195.33 41.7133 195.33 42.22C195.33 42.7533 195.176 43.2467 194.87 43.7C194.576 44.1533 194.13 44.52 193.53 44.8C192.943 45.0667 192.216 45.2 191.35 45.2Z" fill="white"/>
<path d="M160.3 21C160.14 21 160.013 20.9667 159.92 20.9C159.84 20.82 159.78 20.6933 159.74 20.52L157 7.64C156.987 7.58667 156.973 7.54 156.96 7.5C156.96 7.44667 156.96 7.41333 156.96 7.4C156.96 7.29333 157 7.2 157.08 7.12C157.16 7.04 157.253 7 157.36 7H157.78C158.033 7 158.18 7.1 158.22 7.3L160.56 18.7L163.04 10.56C163.08 10.44 163.147 10.3333 163.24 10.24C163.347 10.1467 163.487 10.1 163.66 10.1H164.1C164.287 10.1 164.427 10.1467 164.52 10.24C164.613 10.3333 164.68 10.44 164.72 10.56L167.2 18.7L169.54 7.3C169.58 7.1 169.727 7 169.98 7H170.4C170.507 7 170.6 7.04 170.68 7.12C170.76 7.2 170.8 7.29333 170.8 7.4C170.8 7.41333 170.793 7.44667 170.78 7.5C170.78 7.54 170.773 7.58667 170.76 7.64L168.02 20.52C167.98 20.6933 167.913 20.82 167.82 20.9C167.74 20.9667 167.62 21 167.46 21H167.16C167 21 166.867 20.96 166.76 20.88C166.667 20.8 166.593 20.68 166.54 20.52L163.88 12.08L161.22 20.52C161.167 20.68 161.087 20.8 160.98 20.88C160.887 20.96 160.76 21 160.6 21H160.3ZM173.842 21C173.708 21 173.602 20.96 173.522 20.88C173.442 20.8 173.402 20.6933 173.402 20.56V7.24C173.402 7.10667 173.442 7 173.522 6.92C173.602 6.84 173.708 6.8 173.842 6.8H174.182C174.315 6.8 174.422 6.84 174.502 6.92C174.582 7 174.622 7.10667 174.622 7.24V11.98C174.982 11.5133 175.415 11.1333 175.922 10.84C176.442 10.5467 177.128 10.4 177.982 10.4C178.888 10.4 179.642 10.6 180.242 11C180.855 11.3867 181.308 11.92 181.602 12.6C181.908 13.2667 182.062 14.0267 182.062 14.88V20.56C182.062 20.6933 182.022 20.8 181.942 20.88C181.862 20.96 181.755 21 181.622 21H181.282C181.148 21 181.042 20.96 180.962 20.88C180.882 20.8 180.842 20.6933 180.842 20.56V14.98C180.842 13.9133 180.582 13.08 180.062 12.48C179.542 11.8667 178.782 11.56 177.782 11.56C176.835 11.56 176.068 11.8667 175.482 12.48C174.908 13.08 174.622 13.9133 174.622 14.98V20.56C174.622 20.6933 174.582 20.8 174.502 20.88C174.422 20.96 174.315 21 174.182 21H173.842ZM189.058 21.2C187.765 21.2 186.738 20.78 185.978 19.94C185.218 19.0867 184.785 17.9733 184.678 16.6C184.665 16.4 184.658 16.1333 184.658 15.8C184.658 15.4667 184.665 15.2 184.678 15C184.745 14.0933 184.958 13.2933 185.318 12.6C185.678 11.9067 186.171 11.3667 186.798 10.98C187.438 10.5933 188.191 10.4 189.058 10.4C189.991 10.4 190.785 10.6067 191.438 11.02C192.091 11.4333 192.591 12.0267 192.938 12.8C193.298 13.5733 193.478 14.4933 193.478 15.56V15.86C193.478 15.9933 193.431 16.1 193.338 16.18C193.258 16.26 193.151 16.3 193.018 16.3H185.898C185.898 16.3 185.898 16.3267 185.898 16.38C185.898 16.4333 185.898 16.4733 185.898 16.5C185.925 17.1 186.065 17.6733 186.318 18.22C186.571 18.7533 186.931 19.1933 187.398 19.54C187.865 19.8733 188.418 20.04 189.058 20.04C189.631 20.04 190.105 19.9533 190.478 19.78C190.865 19.6067 191.171 19.42 191.398 19.22C191.625 19.0067 191.771 18.8467 191.838 18.74C191.958 18.5667 192.051 18.4667 192.118 18.44C192.185 18.4 192.291 18.38 192.438 18.38H192.758C192.878 18.38 192.978 18.42 193.058 18.5C193.151 18.5667 193.191 18.66 193.178 18.78C193.165 18.9667 193.058 19.2 192.858 19.48C192.671 19.7467 192.398 20.0133 192.038 20.28C191.691 20.5467 191.265 20.7667 190.758 20.94C190.251 21.1133 189.685 21.2 189.058 21.2ZM185.898 15.18H192.258V15.1C192.258 14.4333 192.131 13.8333 191.878 13.3C191.625 12.7667 191.258 12.3467 190.778 12.04C190.298 11.72 189.725 11.56 189.058 11.56C188.391 11.56 187.818 11.72 187.338 12.04C186.871 12.3467 186.511 12.7667 186.258 13.3C186.018 13.8333 185.898 14.4333 185.898 15.1V15.18ZM196.556 21C196.423 21 196.316 20.96 196.236 20.88C196.156 20.8 196.116 20.6933 196.116 20.56V11.04C196.116 10.9067 196.156 10.8 196.236 10.72C196.316 10.64 196.423 10.6 196.556 10.6H196.896C197.029 10.6 197.136 10.64 197.216 10.72C197.296 10.8 197.336 10.9067 197.336 11.04V11.98C197.696 11.5133 198.129 11.1333 198.636 10.84C199.156 10.5467 199.843 10.4 200.696 10.4C201.603 10.4 202.356 10.6 202.956 11C203.569 11.3867 204.023 11.92 204.316 12.6C204.623 13.2667 204.776 14.0267 204.776 14.88V20.56C204.776 20.6933 204.736 20.8 204.656 20.88C204.576 20.96 204.469 21 204.336 21H203.996C203.863 21 203.756 20.96 203.676 20.88C203.596 20.8 203.556 20.6933 203.556 20.56V14.98C203.556 13.9133 203.296 13.08 202.776 12.48C202.256 11.8667 201.496 11.56 200.496 11.56C199.549 11.56 198.783 11.8667 198.196 12.48C197.623 13.08 197.336 13.9133 197.336 14.98V20.56C197.336 20.6933 197.296 20.8 197.216 20.88C197.136 20.96 197.029 21 196.896 21H196.556ZM213.509 21C213.376 21 213.269 20.96 213.189 20.88C213.109 20.8 213.069 20.6933 213.069 20.56V11.04C213.069 10.9067 213.109 10.8 213.189 10.72C213.269 10.64 213.376 10.6 213.509 10.6H213.849C213.983 10.6 214.089 10.64 214.169 10.72C214.249 10.8 214.289 10.9067 214.289 11.04V11.98C214.649 11.5133 215.083 11.1333 215.589 10.84C216.109 10.5467 216.796 10.4 217.649 10.4C218.556 10.4 219.309 10.6 219.909 11C220.523 11.3867 220.976 11.92 221.269 12.6C221.576 13.2667 221.729 14.0267 221.729 14.88V20.56C221.729 20.6933 221.689 20.8 221.609 20.88C221.529 20.96 221.423 21 221.289 21H220.949C220.816 21 220.709 20.96 220.629 20.88C220.549 20.8 220.509 20.6933 220.509 20.56V14.98C220.509 13.9133 220.249 13.08 219.729 12.48C219.209 11.8667 218.449 11.56 217.449 11.56C216.503 11.56 215.736 11.8667 215.149 12.48C214.576 13.08 214.289 13.9133 214.289 14.98V20.56C214.289 20.6933 214.249 20.8 214.169 20.88C214.089 20.96 213.983 21 213.849 21H213.509ZM227.666 21.2C227.026 21.2 226.433 21.0667 225.886 20.8C225.353 20.5333 224.919 20.18 224.586 19.74C224.253 19.2867 224.086 18.78 224.086 18.22C224.086 17.3133 224.453 16.5867 225.186 16.04C225.919 15.4933 226.873 15.14 228.046 14.98L231.206 14.54V13.84C231.206 13.1333 230.986 12.58 230.546 12.18C230.119 11.7667 229.433 11.56 228.486 11.56C227.793 11.56 227.233 11.7 226.806 11.98C226.379 12.2467 226.086 12.6 225.926 13.04C225.859 13.24 225.733 13.34 225.546 13.34H225.226C225.066 13.34 224.953 13.3 224.886 13.22C224.819 13.1267 224.786 13.02 224.786 12.9C224.786 12.7133 224.853 12.48 224.986 12.2C225.133 11.92 225.353 11.6467 225.646 11.38C225.939 11.1 226.319 10.8667 226.786 10.68C227.253 10.4933 227.819 10.4 228.486 10.4C229.273 10.4 229.919 10.5067 230.426 10.72C230.946 10.9333 231.346 11.2133 231.626 11.56C231.919 11.8933 232.126 12.2667 232.246 12.68C232.366 13.0933 232.426 13.5 232.426 13.9V20.56C232.426 20.6933 232.386 20.8 232.306 20.88C232.226 20.96 232.119 21 231.986 21H231.646C231.513 21 231.406 20.96 231.326 20.88C231.246 20.8 231.206 20.6933 231.206 20.56V19.62C231.046 19.86 230.819 20.1 230.526 20.34C230.233 20.58 229.853 20.7867 229.386 20.96C228.933 21.12 228.359 21.2 227.666 21.2ZM227.866 20.04C228.479 20.04 229.039 19.9067 229.546 19.64C230.053 19.3733 230.453 18.9667 230.746 18.42C231.053 17.86 231.206 17.16 231.206 16.32V15.64L228.626 16C227.533 16.1467 226.706 16.4 226.146 16.76C225.586 17.12 225.306 17.5733 225.306 18.12C225.306 18.56 225.433 18.92 225.686 19.2C225.939 19.48 226.259 19.6933 226.646 19.84C227.046 19.9733 227.453 20.04 227.866 20.04ZM238.991 21C238.298 21 237.751 20.8533 237.351 20.56C236.951 20.2667 236.671 19.8667 236.511 19.36C236.351 18.8533 236.271 18.2867 236.271 17.66V11.76H234.711C234.578 11.76 234.471 11.72 234.391 11.64C234.311 11.56 234.271 11.4533 234.271 11.32V11.04C234.271 10.9067 234.311 10.8 234.391 10.72C234.471 10.64 234.578 10.6 234.711 10.6H236.271V7.24C236.271 7.10667 236.311 7 236.391 6.92C236.471 6.84 236.578 6.8 236.711 6.8H237.051C237.184 6.8 237.291 6.84 237.371 6.92C237.451 7 237.491 7.10667 237.491 7.24V10.6H239.971C240.104 10.6 240.211 10.64 240.291 10.72C240.371 10.8 240.411 10.9067 240.411 11.04V11.32C240.411 11.4533 240.371 11.56 240.291 11.64C240.211 11.72 240.104 11.76 239.971 11.76H237.491V17.58C237.491 18.2867 237.604 18.84 237.831 19.24C238.071 19.64 238.491 19.84 239.091 19.84H240.171C240.304 19.84 240.411 19.88 240.491 19.96C240.571 20.04 240.611 20.1467 240.611 20.28V20.56C240.611 20.6933 240.571 20.8 240.491 20.88C240.411 20.96 240.304 21 240.171 21H238.991ZM246.579 21.2C245.672 21.2 244.919 21.0067 244.319 20.62C243.732 20.22 243.292 19.68 242.999 19C242.719 18.32 242.579 17.56 242.579 16.72V11.04C242.579 10.9067 242.619 10.8 242.699 10.72C242.779 10.64 242.885 10.6 243.019 10.6H243.359C243.492 10.6 243.599 10.64 243.679 10.72C243.759 10.8 243.799 10.9067 243.799 11.04V16.62C243.799 18.9 244.792 20.04 246.779 20.04C247.725 20.04 248.485 19.74 249.059 19.14C249.632 18.5267 249.919 17.6867 249.919 16.62V11.04C249.919 10.9067 249.959 10.8 250.039 10.72C250.119 10.64 250.225 10.6 250.359 10.6H250.699C250.832 10.6 250.939 10.64 251.019 10.72C251.099 10.8 251.139 10.9067 251.139 11.04V20.56C251.139 20.6933 251.099 20.8 251.019 20.88C250.939 20.96 250.832 21 250.699 21H250.359C250.225 21 250.119 20.96 250.039 20.88C249.959 20.8 249.919 20.6933 249.919 20.56V19.62C249.559 20.0867 249.125 20.4667 248.619 20.76C248.125 21.0533 247.445 21.2 246.579 21.2ZM254.818 21C254.684 21 254.578 20.96 254.498 20.88C254.418 20.8 254.378 20.6933 254.378 20.56V11.06C254.378 10.9267 254.418 10.82 254.498 10.74C254.578 10.6467 254.684 10.6 254.818 10.6H255.138C255.271 10.6 255.378 10.6467 255.458 10.74C255.551 10.82 255.598 10.9267 255.598 11.06V11.98C255.838 11.5133 256.184 11.1667 256.638 10.94C257.091 10.7133 257.651 10.6 258.318 10.6H259.058C259.191 10.6 259.298 10.64 259.378 10.72C259.458 10.8 259.498 10.9067 259.498 11.04V11.32C259.498 11.4533 259.458 11.56 259.378 11.64C259.298 11.72 259.191 11.76 259.058 11.76H258.198C257.398 11.76 256.764 11.9933 256.298 12.46C255.831 12.9267 255.598 13.56 255.598 14.36V20.56C255.598 20.6933 255.551 20.8 255.458 20.88C255.378 20.96 255.271 21 255.138 21H254.818ZM264.957 21.2C263.663 21.2 262.637 20.78 261.877 19.94C261.117 19.0867 260.683 17.9733 260.577 16.6C260.563 16.4 260.557 16.1333 260.557 15.8C260.557 15.4667 260.563 15.2 260.577 15C260.643 14.0933 260.857 13.2933 261.217 12.6C261.577 11.9067 262.07 11.3667 262.697 10.98C263.337 10.5933 264.09 10.4 264.957 10.4C265.89 10.4 266.683 10.6067 267.337 11.02C267.99 11.4333 268.49 12.0267 268.837 12.8C269.197 13.5733 269.377 14.4933 269.377 15.56V15.86C269.377 15.9933 269.33 16.1 269.237 16.18C269.157 16.26 269.05 16.3 268.917 16.3H261.797C261.797 16.3 261.797 16.3267 261.797 16.38C261.797 16.4333 261.797 16.4733 261.797 16.5C261.823 17.1 261.963 17.6733 262.217 18.22C262.47 18.7533 262.83 19.1933 263.297 19.54C263.763 19.8733 264.317 20.04 264.957 20.04C265.53 20.04 266.003 19.9533 266.377 19.78C266.763 19.6067 267.07 19.42 267.297 19.22C267.523 19.0067 267.67 18.8467 267.737 18.74C267.857 18.5667 267.95 18.4667 268.017 18.44C268.083 18.4 268.19 18.38 268.337 18.38H268.657C268.777 18.38 268.877 18.42 268.957 18.5C269.05 18.5667 269.09 18.66 269.077 18.78C269.063 18.9667 268.957 19.2 268.757 19.48C268.57 19.7467 268.297 20.0133 267.937 20.28C267.59 20.5467 267.163 20.7667 266.657 20.94C266.15 21.1133 265.583 21.2 264.957 21.2ZM261.797 15.18H268.157V15.1C268.157 14.4333 268.03 13.8333 267.777 13.3C267.523 12.7667 267.157 12.3467 266.677 12.04C266.197 11.72 265.623 11.56 264.957 11.56C264.29 11.56 263.717 11.72 263.237 12.04C262.77 12.3467 262.41 12.7667 262.157 13.3C261.917 13.8333 261.797 14.4333 261.797 15.1V15.18ZM161.56 45.2C160.627 45.2 159.833 45.02 159.18 44.66C158.527 44.2867 158.027 43.7533 157.68 43.06C157.347 42.3667 157.167 41.5467 157.14 40.6C157.127 40.4 157.12 40.1333 157.12 39.8C157.12 39.4667 157.127 39.2 157.14 39C157.167 38.04 157.347 37.22 157.68 36.54C158.027 35.8467 158.527 35.32 159.18 34.96C159.833 34.5867 160.627 34.4 161.56 34.4C162.267 34.4 162.873 34.5 163.38 34.7C163.9 34.8867 164.327 35.14 164.66 35.46C164.993 35.7667 165.247 36.1067 165.42 36.48C165.593 36.8533 165.687 37.22 165.7 37.58C165.713 37.7133 165.673 37.82 165.58 37.9C165.487 37.98 165.38 38.02 165.26 38.02H164.98C164.847 38.02 164.747 37.9933 164.68 37.94C164.627 37.8733 164.567 37.76 164.5 37.6C164.22 36.84 163.833 36.3133 163.34 36.02C162.86 35.7133 162.267 35.56 161.56 35.56C160.653 35.56 159.9 35.84 159.3 36.4C158.713 36.9467 158.4 37.8467 158.36 39.1C158.333 39.5667 158.333 40.0333 158.36 40.5C158.4 41.7533 158.713 42.66 159.3 43.22C159.9 43.7667 160.653 44.04 161.56 44.04C162.267 44.04 162.86 43.8933 163.34 43.6C163.833 43.2933 164.22 42.76 164.5 42C164.567 41.84 164.627 41.7333 164.68 41.68C164.747 41.6133 164.847 41.58 164.98 41.58H165.26C165.38 41.58 165.487 41.62 165.58 41.7C165.673 41.78 165.713 41.8867 165.7 42.02C165.687 42.3133 165.627 42.6067 165.52 42.9C165.413 43.1933 165.247 43.48 165.02 43.76C164.807 44.04 164.54 44.2867 164.22 44.5C163.9 44.7133 163.513 44.88 163.06 45C162.62 45.1333 162.12 45.2 161.56 45.2ZM171.143 45.2C170.503 45.2 169.909 45.0667 169.363 44.8C168.829 44.5333 168.396 44.18 168.063 43.74C167.729 43.2867 167.563 42.78 167.563 42.22C167.563 41.3133 167.929 40.5867 168.663 40.04C169.396 39.4933 170.349 39.14 171.523 38.98L174.683 38.54V37.84C174.683 37.1333 174.463 36.58 174.023 36.18C173.596 35.7667 172.909 35.56 171.963 35.56C171.269 35.56 170.709 35.7 170.283 35.98C169.856 36.2467 169.563 36.6 169.403 37.04C169.336 37.24 169.209 37.34 169.023 37.34H168.703C168.543 37.34 168.429 37.3 168.363 37.22C168.296 37.1267 168.263 37.02 168.263 36.9C168.263 36.7133 168.329 36.48 168.463 36.2C168.609 35.92 168.829 35.6467 169.123 35.38C169.416 35.1 169.796 34.8667 170.263 34.68C170.729 34.4933 171.296 34.4 171.963 34.4C172.749 34.4 173.396 34.5067 173.903 34.72C174.423 34.9333 174.823 35.2133 175.103 35.56C175.396 35.8933 175.603 36.2667 175.723 36.68C175.843 37.0933 175.903 37.5 175.903 37.9V44.56C175.903 44.6933 175.863 44.8 175.783 44.88C175.703 44.96 175.596 45 175.463 45H175.123C174.989 45 174.883 44.96 174.803 44.88C174.723 44.8 174.683 44.6933 174.683 44.56V43.62C174.523 43.86 174.296 44.1 174.003 44.34C173.709 44.58 173.329 44.7867 172.863 44.96C172.409 45.12 171.836 45.2 171.143 45.2ZM171.343 44.04C171.956 44.04 172.516 43.9067 173.023 43.64C173.529 43.3733 173.929 42.9667 174.223 42.42C174.529 41.86 174.683 41.16 174.683 40.32V39.64L172.103 40C171.009 40.1467 170.183 40.4 169.623 40.76C169.063 41.12 168.783 41.5733 168.783 42.12C168.783 42.56 168.909 42.92 169.163 43.2C169.416 43.48 169.736 43.6933 170.123 43.84C170.523 43.9733 170.929 44.04 171.343 44.04ZM179.525 45C179.392 45 179.285 44.96 179.205 44.88C179.125 44.8 179.085 44.6933 179.085 44.56V31.24C179.085 31.1067 179.125 31 179.205 30.92C179.285 30.84 179.392 30.8 179.525 30.8H179.865C179.999 30.8 180.105 30.84 180.185 30.92C180.265 31 180.305 31.1067 180.305 31.24V44.56C180.305 44.6933 180.265 44.8 180.185 44.88C180.105 44.96 179.999 45 179.865 45H179.525ZM184.018 45C183.884 45 183.778 44.96 183.698 44.88C183.618 44.8 183.578 44.6933 183.578 44.56V31.24C183.578 31.1067 183.618 31 183.698 30.92C183.778 30.84 183.884 30.8 184.018 30.8H184.358C184.491 30.8 184.598 30.84 184.678 30.92C184.758 31 184.798 31.1067 184.798 31.24V44.56C184.798 44.6933 184.758 44.8 184.678 44.88C184.598 44.96 184.491 45 184.358 45H184.018ZM191.35 45.2C190.656 45.2 190.056 45.1067 189.55 44.92C189.056 44.7333 188.65 44.5133 188.33 44.26C188.01 43.9933 187.77 43.7333 187.61 43.48C187.463 43.2267 187.383 43.0333 187.37 42.9C187.356 42.7533 187.403 42.6467 187.51 42.58C187.616 42.5 187.716 42.46 187.81 42.46H188.11C188.19 42.46 188.256 42.4733 188.31 42.5C188.376 42.5267 188.456 42.6 188.55 42.72C188.723 42.9467 188.923 43.1667 189.15 43.38C189.376 43.58 189.663 43.74 190.01 43.86C190.37 43.98 190.816 44.04 191.35 44.04C192.15 44.04 192.81 43.8867 193.33 43.58C193.85 43.2733 194.11 42.82 194.11 42.22C194.11 41.8467 194.003 41.5467 193.79 41.32C193.59 41.0933 193.243 40.8933 192.75 40.72C192.256 40.5467 191.59 40.3667 190.75 40.18C189.91 39.98 189.263 39.74 188.81 39.46C188.37 39.18 188.07 38.86 187.91 38.5C187.75 38.1267 187.67 37.7267 187.67 37.3C187.67 36.8333 187.803 36.38 188.07 35.94C188.336 35.4867 188.73 35.12 189.25 34.84C189.783 34.5467 190.45 34.4 191.25 34.4C191.903 34.4 192.456 34.4867 192.91 34.66C193.376 34.8333 193.756 35.0467 194.05 35.3C194.343 35.54 194.556 35.78 194.69 36.02C194.836 36.26 194.916 36.4533 194.93 36.6C194.943 36.7333 194.903 36.84 194.81 36.92C194.716 37 194.61 37.04 194.49 37.04H194.19C194.083 37.04 193.996 37.02 193.93 36.98C193.863 36.9267 193.803 36.86 193.75 36.78C193.616 36.5667 193.456 36.3667 193.27 36.18C193.083 35.9933 192.83 35.8467 192.51 35.74C192.203 35.62 191.783 35.56 191.25 35.56C190.45 35.56 189.856 35.7267 189.47 36.06C189.083 36.38 188.89 36.7933 188.89 37.3C188.89 37.5933 188.97 37.8533 189.13 38.08C189.29 38.2933 189.59 38.4933 190.03 38.68C190.47 38.8533 191.11 39.04 191.95 39.24C192.803 39.4267 193.476 39.66 193.97 39.94C194.463 40.2067 194.81 40.5267 195.01 40.9C195.223 41.2733 195.33 41.7133 195.33 42.22C195.33 42.7533 195.176 43.2467 194.87 43.7C194.576 44.1533 194.13 44.52 193.53 44.8C192.943 45.0667 192.216 45.2 191.35 45.2Z" fill="white"/>
<path d="M16.488 39V38.28C17.28 38.232 17.868 38.136 18.252 37.992C18.66 37.848 18.924 37.56 19.044 37.128C19.188 36.696 19.26 36.048 19.26 35.184V17.328C19.26 16.44 19.188 15.792 19.044 15.384C18.924 14.952 18.66 14.664 18.252 14.52C17.868 14.352 17.28 14.256 16.488 14.232V13.512C17.136 13.536 17.94 13.56 18.9 13.584C19.86 13.608 20.82 13.62 21.78 13.62C22.836 13.62 23.82 13.608 24.732 13.584C25.668 13.56 26.412 13.536 26.964 13.512V14.232C26.196 14.256 25.608 14.352 25.2 14.52C24.816 14.664 24.552 14.952 24.408 15.384C24.264 15.792 24.192 16.44 24.192 17.328V35.184C24.192 36.048 24.264 36.696 24.408 37.128C24.552 37.56 24.816 37.848 25.2 37.992C25.608 38.136 26.196 38.232 26.964 38.28V39C26.412 38.952 25.668 38.928 24.732 38.928C23.82 38.904 22.836 38.892 21.78 38.892C20.82 38.892 19.86 38.904 18.9 38.928C17.94 38.928 17.136 38.952 16.488 39ZM1.296 39V38.28C2.088 38.232 2.676 38.136 3.06 37.992C3.468 37.848 3.732 37.56 3.852 37.128C3.996 36.696 4.068 36.048 4.068 35.184V17.328C4.068 16.44 3.996 15.792 3.852 15.384C3.732 14.952 3.468 14.664 3.06 14.52C2.676 14.352 2.088 14.256 1.296 14.232V13.512C1.896 13.536 2.664 13.56 3.6 13.584C4.536 13.608 5.544 13.62 6.624 13.62C7.584 13.62 8.532 13.608 9.468 13.584C10.404 13.56 11.172 13.536 11.772 13.512V14.232C11.004 14.256 10.416 14.352 10.008 14.52C9.624 14.664 9.36 14.952 9.216 15.384C9.072 15.792 9 16.44 9 17.328V35.184C9 36.048 9.072 36.696 9.216 37.128C9.36 37.56 9.624 37.848 10.008 37.992C10.416 38.136 11.004 38.232 11.772 38.28V39C11.172 38.952 10.404 38.928 9.468 38.928C8.532 38.904 7.584 38.892 6.624 38.892C5.544 38.892 4.536 38.904 3.6 38.928C2.664 38.928 1.896 38.952 1.296 39ZM7.02 26.544V25.824H21.24V26.544H7.02ZM37.7128 19.884C39.3688 19.884 40.8328 20.22 42.1048 20.892C43.4008 21.54 44.4208 22.584 45.1648 24.024C45.9328 25.464 46.3168 27.36 46.3168 29.712C46.3168 32.064 45.9328 33.96 45.1648 35.4C44.4208 36.84 43.4008 37.884 42.1048 38.532C40.8328 39.18 39.3688 39.504 37.7128 39.504C36.0568 39.504 34.5808 39.18 33.2848 38.532C31.9888 37.884 30.9688 36.84 30.2248 35.4C29.4808 33.96 29.1088 32.064 29.1088 29.712C29.1088 27.36 29.4808 25.464 30.2248 24.024C30.9688 22.584 31.9888 21.54 33.2848 20.892C34.5808 20.22 36.0568 19.884 37.7128 19.884ZM37.7128 20.604C36.5848 20.604 35.6608 21.324 34.9408 22.764C34.2448 24.18 33.8968 26.496 33.8968 29.712C33.8968 32.928 34.2448 35.244 34.9408 36.66C35.6608 38.076 36.5848 38.784 37.7128 38.784C38.8168 38.784 39.7288 38.076 40.4488 36.66C41.1688 35.244 41.5288 32.928 41.5288 29.712C41.5288 26.496 41.1688 24.18 40.4488 22.764C39.7288 21.324 38.8168 20.604 37.7128 20.604ZM55.0946 10.812V35.652C55.0946 36.66 55.2746 37.344 55.6346 37.704C56.0186 38.064 56.6546 38.244 57.5426 38.244V39C57.1106 38.976 56.4506 38.952 55.5626 38.928C54.6986 38.88 53.8106 38.856 52.8986 38.856C52.0106 38.856 51.0986 38.88 50.1626 38.928C49.2506 38.952 48.5666 38.976 48.1106 39V38.244C48.9986 38.244 49.6226 38.064 49.9826 37.704C50.3666 37.344 50.5586 36.66 50.5586 35.652V15.132C50.5586 14.052 50.3906 13.26 50.0546 12.756C49.7186 12.228 49.0706 11.964 48.1106 11.964V11.208C48.8786 11.28 49.6226 11.316 50.3426 11.316C51.2546 11.316 52.1066 11.28 52.8986 11.208C53.6906 11.112 54.4226 10.98 55.0946 10.812ZM63.6891 11.208C64.5531 11.208 65.2611 11.448 65.8131 11.928C66.3651 12.408 66.6411 13.044 66.6411 13.836C66.6411 14.628 66.3651 15.264 65.8131 15.744C65.2611 16.224 64.5531 16.464 63.6891 16.464C62.8251 16.464 62.1171 16.224 61.5651 15.744C61.0131 15.264 60.7371 14.628 60.7371 13.836C60.7371 13.044 61.0131 12.408 61.5651 11.928C62.1171 11.448 62.8251 11.208 63.6891 11.208ZM66.2091 19.992V35.652C66.2091 36.66 66.3891 37.344 66.7491 37.704C67.1331 38.064 67.7691 38.244 68.6571 38.244V39C68.2251 38.976 67.5651 38.952 66.6771 38.928C65.7891 38.88 64.8891 38.856 63.9771 38.856C63.0891 38.856 62.1891 38.88 61.2771 38.928C60.3651 38.952 59.6811 38.976 59.2251 39V38.244C60.1131 38.244 60.7371 38.064 61.0971 37.704C61.4811 37.344 61.6731 36.66 61.6731 35.652V24.348C61.6731 23.244 61.4931 22.44 61.1331 21.936C60.7971 21.408 60.1611 21.144 59.2251 21.144V20.388C59.9931 20.46 60.7371 20.496 61.4571 20.496C62.3451 20.496 63.1851 20.46 63.9771 20.388C64.7931 20.292 65.5371 20.16 66.2091 19.992ZM87.5433 10.812V35.076C87.5433 36.156 87.7233 36.96 88.0833 37.488C88.4433 37.992 89.0793 38.244 89.9913 38.244V39C89.2473 38.928 88.5033 38.892 87.7593 38.892C86.8713 38.892 86.0313 38.928 85.2393 39C84.4473 39.072 83.7033 39.204 83.0073 39.396V15.132C83.0073 14.052 82.8273 13.26 82.4673 12.756C82.1313 12.228 81.4953 11.964 80.5593 11.964V11.208C81.3273 11.28 82.0713 11.316 82.7913 11.316C83.7033 11.316 84.5553 11.28 85.3473 11.208C86.1393 11.112 86.8713 10.98 87.5433 10.812ZM78.9393 19.884C79.9953 19.884 80.9433 20.088 81.7833 20.496C82.6233 20.904 83.2473 21.588 83.6553 22.548L83.2233 22.908C82.8873 22.212 82.4313 21.696 81.8553 21.36C81.2793 21.024 80.6313 20.856 79.9113 20.856C78.6153 20.856 77.5713 21.588 76.7793 23.052C76.0113 24.492 75.6273 26.712 75.6273 29.712C75.6273 31.728 75.7833 33.36 76.0953 34.608C76.4073 35.832 76.8513 36.72 77.4273 37.272C78.0273 37.824 78.7353 38.1 79.5513 38.1C80.4153 38.1 81.1953 37.752 81.8913 37.056C82.5873 36.336 82.9953 35.316 83.1153 33.996L83.3673 35.004C83.0553 36.468 82.4673 37.584 81.6033 38.352C80.7393 39.12 79.5993 39.504 78.1833 39.504C76.7433 39.504 75.4593 39.156 74.3313 38.46C73.2273 37.74 72.3633 36.66 71.7393 35.22C71.1393 33.756 70.8393 31.908 70.8393 29.676C70.8393 27.492 71.1993 25.68 71.9193 24.24C72.6393 22.776 73.6113 21.684 74.8353 20.964C76.0593 20.244 77.4273 19.884 78.9393 19.884ZM96.608 39.252C95.576 39.252 94.7 39.06 93.98 38.676C93.26 38.268 92.72 37.728 92.36 37.056C92 36.36 91.82 35.592 91.82 34.752C91.82 33.72 92.06 32.88 92.54 32.232C93.02 31.56 93.632 31.032 94.376 30.648C95.144 30.24 95.948 29.904 96.788 29.64C97.628 29.352 98.42 29.088 99.164 28.848C99.908 28.584 100.52 28.284 101 27.948C101.48 27.612 101.72 27.168 101.72 26.616V23.988C101.72 23.22 101.6 22.596 101.36 22.116C101.144 21.612 100.808 21.24 100.352 21C99.92 20.736 99.368 20.604 98.696 20.604C98.192 20.604 97.664 20.676 97.112 20.82C96.56 20.964 96.104 21.24 95.744 21.648C96.368 21.816 96.848 22.128 97.184 22.584C97.544 23.04 97.724 23.592 97.724 24.24C97.724 24.984 97.472 25.572 96.968 26.004C96.488 26.412 95.876 26.616 95.132 26.616C94.34 26.616 93.74 26.364 93.332 25.86C92.924 25.356 92.72 24.768 92.72 24.096C92.72 23.424 92.888 22.872 93.224 22.44C93.56 21.984 94.028 21.576 94.628 21.216C95.228 20.808 95.996 20.484 96.932 20.244C97.868 20.004 98.888 19.884 99.992 19.884C101.048 19.884 101.984 20.004 102.8 20.244C103.616 20.46 104.312 20.856 104.888 21.432C105.464 21.984 105.836 22.668 106.004 23.484C106.172 24.3 106.256 25.296 106.256 26.472V36.336C106.256 36.936 106.328 37.368 106.472 37.632C106.616 37.872 106.844 37.992 107.156 37.992C107.396 37.992 107.624 37.932 107.84 37.812C108.056 37.692 108.296 37.524 108.56 37.308L108.956 37.92C108.428 38.328 107.876 38.652 107.3 38.892C106.724 39.132 106.028 39.252 105.212 39.252C104.372 39.252 103.7 39.132 103.196 38.892C102.716 38.652 102.356 38.304 102.116 37.848C101.9 37.392 101.78 36.852 101.756 36.228C101.18 37.188 100.472 37.932 99.632 38.46C98.792 38.988 97.784 39.252 96.608 39.252ZM98.768 37.236C99.344 37.236 99.872 37.08 100.352 36.768C100.856 36.456 101.312 35.988 101.72 35.364V28.092C101.48 28.452 101.132 28.776 100.676 29.064C100.244 29.352 99.776 29.64 99.272 29.928C98.768 30.216 98.288 30.552 97.832 30.936C97.4 31.296 97.028 31.752 96.716 32.304C96.428 32.832 96.284 33.516 96.284 34.356C96.284 35.292 96.512 36.012 96.968 36.516C97.424 36.996 98.024 37.236 98.768 37.236ZM124.967 20.244L115.499 38.46H118.091C119.027 38.46 119.879 38.268 120.647 37.884C121.439 37.476 122.099 36.816 122.627 35.904C123.155 34.992 123.467 33.768 123.563 32.232H124.355C124.355 33.912 124.367 35.304 124.391 36.408C124.415 37.512 124.451 38.424 124.499 39.144C123.419 39.096 122.291 39.06 121.115 39.036C119.963 39.012 118.811 39 117.659 39C116.435 39 115.187 39.012 113.915 39.036C112.643 39.084 111.419 39.132 110.243 39.18L119.711 20.964H117.047C116.063 20.964 115.175 21.168 114.383 21.576C113.615 21.96 112.991 22.608 112.511 23.52C112.055 24.408 111.767 25.632 111.647 27.192H110.855C110.855 25.488 110.843 24.096 110.819 23.016C110.795 21.912 110.759 21 110.711 20.28C111.791 20.328 112.907 20.364 114.059 20.388C115.235 20.412 116.399 20.424 117.551 20.424C118.775 20.424 120.023 20.412 121.295 20.388C122.567 20.34 123.791 20.292 124.967 20.244ZM136.113 19.884C138.225 19.884 139.881 20.52 141.081 21.792C142.281 23.064 142.881 25.092 142.881 27.876H130.749L130.713 27.192H138.705C138.753 26.016 138.681 24.936 138.489 23.952C138.297 22.944 137.985 22.14 137.553 21.54C137.145 20.94 136.605 20.64 135.933 20.64C135.021 20.64 134.229 21.18 133.557 22.26C132.885 23.316 132.465 25.056 132.297 27.48L132.441 27.696C132.393 28.008 132.357 28.344 132.333 28.704C132.333 29.064 132.333 29.424 132.333 29.784C132.333 31.44 132.573 32.808 133.053 33.888C133.533 34.968 134.157 35.76 134.925 36.264C135.693 36.768 136.485 37.02 137.301 37.02C137.853 37.02 138.417 36.936 138.993 36.768C139.569 36.6 140.133 36.288 140.685 35.832C141.237 35.376 141.741 34.728 142.197 33.888L142.881 34.176C142.617 35.016 142.173 35.856 141.549 36.696C140.949 37.512 140.169 38.184 139.209 38.712C138.249 39.24 137.121 39.504 135.825 39.504C134.193 39.504 132.753 39.144 131.505 38.424C130.257 37.704 129.285 36.636 128.589 35.22C127.893 33.78 127.545 32.028 127.545 29.964C127.545 27.78 127.905 25.944 128.625 24.456C129.369 22.968 130.389 21.84 131.685 21.072C132.981 20.28 134.457 19.884 136.113 19.884Z" fill="white"/>
<line x1="150.5" y1="4" x2="150.5" y2="48" stroke="white"/>
</svg>
