<svg width="190" height="35" viewBox="0 0 190 35" fill="none" xmlns="http://www.w3.org/2000/svg">
<path d="M10.992 27.5V27.02C11.52 26.988 11.912 26.924 12.168 26.828C12.44 26.732 12.616 26.54 12.696 26.252C12.792 25.964 12.84 25.532 12.84 24.956V13.052C12.84 12.46 12.792 12.028 12.696 11.756C12.616 11.468 12.44 11.276 12.168 11.18C11.912 11.068 11.52 11.004 10.992 10.988V10.508C11.424 10.524 11.96 10.54 12.6 10.556C13.24 10.572 13.88 10.58 14.52 10.58C15.224 10.58 15.88 10.572 16.488 10.556C17.112 10.54 17.608 10.524 17.976 10.508V10.988C17.464 11.004 17.072 11.068 16.8 11.18C16.544 11.276 16.368 11.468 16.272 11.756C16.176 12.028 16.128 12.46 16.128 13.052V24.956C16.128 25.532 16.176 25.964 16.272 26.252C16.368 26.54 16.544 26.732 16.8 26.828C17.072 26.924 17.464 26.988 17.976 27.02V27.5C17.608 27.468 17.112 27.452 16.488 27.452C15.88 27.436 15.224 27.428 14.52 27.428C13.88 27.428 13.24 27.436 12.6 27.452C11.96 27.452 11.424 27.468 10.992 27.5ZM0.864 27.5V27.02C1.392 26.988 1.784 26.924 2.04 26.828C2.312 26.732 2.488 26.54 2.568 26.252C2.664 25.964 2.712 25.532 2.712 24.956V13.052C2.712 12.46 2.664 12.028 2.568 11.756C2.488 11.468 2.312 11.276 2.04 11.18C1.784 11.068 1.392 11.004 0.864 10.988V10.508C1.264 10.524 1.776 10.54 2.4 10.556C3.024 10.572 3.696 10.58 4.416 10.58C5.056 10.58 5.688 10.572 6.312 10.556C6.936 10.54 7.448 10.524 7.848 10.508V10.988C7.336 11.004 6.944 11.068 6.672 11.18C6.416 11.276 6.24 11.468 6.144 11.756C6.048 12.028 6 12.46 6 13.052V24.956C6 25.532 6.048 25.964 6.144 26.252C6.24 26.54 6.416 26.732 6.672 26.828C6.944 26.924 7.336 26.988 7.848 27.02V27.5C7.448 27.468 6.936 27.452 6.312 27.452C5.688 27.436 5.056 27.428 4.416 27.428C3.696 27.428 3.024 27.436 2.4 27.452C1.776 27.452 1.264 27.468 0.864 27.5ZM4.68 19.196V18.716H14.16V19.196H4.68ZM25.1419 14.756C26.2459 14.756 27.2219 14.98 28.0699 15.428C28.9339 15.86 29.6139 16.556 30.1099 17.516C30.6219 18.476 30.8779 19.74 30.8779 21.308C30.8779 22.876 30.6219 24.14 30.1099 25.1C29.6139 26.06 28.9339 26.756 28.0699 27.188C27.2219 27.62 26.2459 27.836 25.1419 27.836C24.0379 27.836 23.0539 27.62 22.1899 27.188C21.3259 26.756 20.6459 26.06 20.1499 25.1C19.6539 24.14 19.4059 22.876 19.4059 21.308C19.4059 19.74 19.6539 18.476 20.1499 17.516C20.6459 16.556 21.3259 15.86 22.1899 15.428C23.0539 14.98 24.0379 14.756 25.1419 14.756ZM25.1419 15.236C24.3899 15.236 23.7739 15.716 23.2939 16.676C22.8299 17.62 22.5979 19.164 22.5979 21.308C22.5979 23.452 22.8299 24.996 23.2939 25.94C23.7739 26.884 24.3899 27.356 25.1419 27.356C25.8779 27.356 26.4859 26.884 26.9659 25.94C27.4459 24.996 27.6859 23.452 27.6859 21.308C27.6859 19.164 27.4459 17.62 26.9659 16.676C26.4859 15.716 25.8779 15.236 25.1419 15.236ZM36.7298 8.708V25.268C36.7298 25.94 36.8498 26.396 37.0898 26.636C37.3458 26.876 37.7698 26.996 38.3618 26.996V27.5C38.0738 27.484 37.6338 27.468 37.0418 27.452C36.4658 27.42 35.8738 27.404 35.2658 27.404C34.6738 27.404 34.0658 27.42 33.4418 27.452C32.8338 27.468 32.3778 27.484 32.0738 27.5V26.996C32.6658 26.996 33.0818 26.876 33.3218 26.636C33.5778 26.396 33.7058 25.94 33.7058 25.268V11.588C33.7058 10.868 33.5938 10.34 33.3698 10.004C33.1458 9.652 32.7138 9.476 32.0738 9.476V8.972C32.5858 9.02 33.0818 9.044 33.5618 9.044C34.1698 9.044 34.7378 9.02 35.2658 8.972C35.7938 8.908 36.2818 8.82 36.7298 8.708ZM42.4594 8.972C43.0354 8.972 43.5074 9.132 43.8754 9.452C44.2434 9.772 44.4274 10.196 44.4274 10.724C44.4274 11.252 44.2434 11.676 43.8754 11.996C43.5074 12.316 43.0354 12.476 42.4594 12.476C41.8834 12.476 41.4114 12.316 41.0434 11.996C40.6754 11.676 40.4914 11.252 40.4914 10.724C40.4914 10.196 40.6754 9.772 41.0434 9.452C41.4114 9.132 41.8834 8.972 42.4594 8.972ZM44.1394 14.828V25.268C44.1394 25.94 44.2594 26.396 44.4994 26.636C44.7554 26.876 45.1794 26.996 45.7714 26.996V27.5C45.4834 27.484 45.0434 27.468 44.4514 27.452C43.8594 27.42 43.2594 27.404 42.6514 27.404C42.0594 27.404 41.4594 27.42 40.8514 27.452C40.2434 27.468 39.7874 27.484 39.4834 27.5V26.996C40.0754 26.996 40.4914 26.876 40.7314 26.636C40.9874 26.396 41.1154 25.94 41.1154 25.268V17.732C41.1154 16.996 40.9954 16.46 40.7554 16.124C40.5314 15.772 40.1074 15.596 39.4834 15.596V15.092C39.9954 15.14 40.4914 15.164 40.9714 15.164C41.5634 15.164 42.1234 15.14 42.6514 15.092C43.1954 15.028 43.6914 14.94 44.1394 14.828ZM58.3622 8.708V24.884C58.3622 25.604 58.4822 26.14 58.7222 26.492C58.9622 26.828 59.3862 26.996 59.9942 26.996V27.5C59.4982 27.452 59.0022 27.428 58.5062 27.428C57.9142 27.428 57.3542 27.452 56.8262 27.5C56.2982 27.548 55.8022 27.636 55.3382 27.764V11.588C55.3382 10.868 55.2182 10.34 54.9782 10.004C54.7542 9.652 54.3302 9.476 53.7062 9.476V8.972C54.2182 9.02 54.7142 9.044 55.1942 9.044C55.8022 9.044 56.3702 9.02 56.8982 8.972C57.4262 8.908 57.9142 8.82 58.3622 8.708ZM52.6262 14.756C53.3302 14.756 53.9622 14.892 54.5222 15.164C55.0822 15.436 55.4982 15.892 55.7702 16.532L55.4822 16.772C55.2582 16.308 54.9542 15.964 54.5702 15.74C54.1862 15.516 53.7542 15.404 53.2742 15.404C52.4102 15.404 51.7142 15.892 51.1862 16.868C50.6742 17.828 50.4182 19.308 50.4182 21.308C50.4182 22.652 50.5222 23.74 50.7302 24.572C50.9382 25.388 51.2342 25.98 51.6182 26.348C52.0182 26.716 52.4902 26.9 53.0342 26.9C53.6102 26.9 54.1302 26.668 54.5942 26.204C55.0582 25.724 55.3302 25.044 55.4102 24.164L55.5782 24.836C55.3702 25.812 54.9782 26.556 54.4022 27.068C53.8262 27.58 53.0662 27.836 52.1222 27.836C51.1622 27.836 50.3062 27.604 49.5542 27.14C48.8182 26.66 48.2422 25.94 47.8262 24.98C47.4262 24.004 47.2262 22.772 47.2262 21.284C47.2262 19.828 47.4662 18.62 47.9462 17.66C48.4262 16.684 49.0742 15.956 49.8902 15.476C50.7062 14.996 51.6182 14.756 52.6262 14.756ZM64.4053 27.668C63.7173 27.668 63.1333 27.54 62.6533 27.284C62.1733 27.012 61.8133 26.652 61.5733 26.204C61.3333 25.74 61.2133 25.228 61.2133 24.668C61.2133 23.98 61.3733 23.42 61.6933 22.988C62.0133 22.54 62.4213 22.188 62.9173 21.932C63.4293 21.66 63.9653 21.436 64.5253 21.26C65.0853 21.068 65.6133 20.892 66.1093 20.732C66.6053 20.556 67.0133 20.356 67.3333 20.132C67.6533 19.908 67.8133 19.612 67.8133 19.244V17.492C67.8133 16.98 67.7333 16.564 67.5733 16.244C67.4293 15.908 67.2053 15.66 66.9013 15.5C66.6133 15.324 66.2453 15.236 65.7973 15.236C65.4613 15.236 65.1093 15.284 64.7413 15.38C64.3733 15.476 64.0693 15.66 63.8293 15.932C64.2453 16.044 64.5653 16.252 64.7893 16.556C65.0293 16.86 65.1493 17.228 65.1493 17.66C65.1493 18.156 64.9813 18.548 64.6453 18.836C64.3253 19.108 63.9173 19.244 63.4213 19.244C62.8933 19.244 62.4933 19.076 62.2213 18.74C61.9493 18.404 61.8133 18.012 61.8133 17.564C61.8133 17.116 61.9253 16.748 62.1493 16.46C62.3733 16.156 62.6853 15.884 63.0853 15.644C63.4853 15.372 63.9973 15.156 64.6213 14.996C65.2453 14.836 65.9253 14.756 66.6613 14.756C67.3653 14.756 67.9893 14.836 68.5333 14.996C69.0773 15.14 69.5413 15.404 69.9253 15.788C70.3093 16.156 70.5573 16.612 70.6693 17.156C70.7813 17.7 70.8373 18.364 70.8373 19.148V25.724C70.8373 26.124 70.8853 26.412 70.9813 26.588C71.0773 26.748 71.2293 26.828 71.4373 26.828C71.5973 26.828 71.7493 26.788 71.8933 26.708C72.0373 26.628 72.1973 26.516 72.3733 26.372L72.6373 26.78C72.2853 27.052 71.9173 27.268 71.5333 27.428C71.1493 27.588 70.6853 27.668 70.1413 27.668C69.5813 27.668 69.1333 27.588 68.7973 27.428C68.4773 27.268 68.2373 27.036 68.0773 26.732C67.9333 26.428 67.8533 26.068 67.8373 25.652C67.4533 26.292 66.9813 26.788 66.4213 27.14C65.8613 27.492 65.1893 27.668 64.4053 27.668ZM65.8453 26.324C66.2293 26.324 66.5813 26.22 66.9013 26.012C67.2373 25.804 67.5413 25.492 67.8133 25.076V20.228C67.6533 20.468 67.4213 20.684 67.1173 20.876C66.8293 21.068 66.5173 21.26 66.1813 21.452C65.8453 21.644 65.5253 21.868 65.2213 22.124C64.9333 22.364 64.6853 22.668 64.4773 23.036C64.2853 23.388 64.1893 23.844 64.1893 24.404C64.1893 25.028 64.3413 25.508 64.6453 25.844C64.9493 26.164 65.3493 26.324 65.8453 26.324ZM83.3111 14.996L76.9991 27.14H78.7271C79.3511 27.14 79.9191 27.012 80.4311 26.756C80.9591 26.484 81.3991 26.044 81.7511 25.436C82.1031 24.828 82.3111 24.012 82.3751 22.988H82.9031C82.9031 24.108 82.9111 25.036 82.9271 25.772C82.9431 26.508 82.9671 27.116 82.9991 27.596C82.2791 27.564 81.5271 27.54 80.7431 27.524C79.9751 27.508 79.2071 27.5 78.4391 27.5C77.6231 27.5 76.7911 27.508 75.9431 27.524C75.0951 27.556 74.2791 27.588 73.4951 27.62L79.8071 15.476H78.0311C77.3751 15.476 76.7831 15.612 76.2551 15.884C75.7431 16.14 75.3271 16.572 75.0071 17.18C74.7031 17.772 74.5111 18.588 74.4311 19.628H73.9031C73.9031 18.492 73.8951 17.564 73.8791 16.844C73.8631 16.108 73.8391 15.5 73.8071 15.02C74.5271 15.052 75.2711 15.076 76.0391 15.092C76.8231 15.108 77.5991 15.116 78.3671 15.116C79.1831 15.116 80.0151 15.108 80.8631 15.092C81.7111 15.06 82.5271 15.028 83.3111 14.996ZM90.7423 14.756C92.1503 14.756 93.2543 15.18 94.0543 16.028C94.8543 16.876 95.2543 18.228 95.2543 20.084H87.1663L87.1423 19.628H92.4703C92.5023 18.844 92.4543 18.124 92.3263 17.468C92.1983 16.796 91.9903 16.26 91.7023 15.86C91.4303 15.46 91.0703 15.26 90.6223 15.26C90.0143 15.26 89.4863 15.62 89.0383 16.34C88.5903 17.044 88.3103 18.204 88.1983 19.82L88.2943 19.964C88.2623 20.172 88.2383 20.396 88.2223 20.636C88.2223 20.876 88.2223 21.116 88.2223 21.356C88.2223 22.46 88.3823 23.372 88.7023 24.092C89.0223 24.812 89.4383 25.34 89.9503 25.676C90.4623 26.012 90.9903 26.18 91.5343 26.18C91.9023 26.18 92.2783 26.124 92.6623 26.012C93.0463 25.9 93.4223 25.692 93.7903 25.388C94.1583 25.084 94.4943 24.652 94.7983 24.092L95.2543 24.284C95.0783 24.844 94.7823 25.404 94.3663 25.964C93.9663 26.508 93.4463 26.956 92.8063 27.308C92.1663 27.66 91.4143 27.836 90.5503 27.836C89.4623 27.836 88.5023 27.596 87.6703 27.116C86.8383 26.636 86.1903 25.924 85.7263 24.98C85.2623 24.02 85.0303 22.852 85.0303 21.476C85.0303 20.02 85.2703 18.796 85.7503 17.804C86.2463 16.812 86.9263 16.06 87.7903 15.548C88.6543 15.02 89.6383 14.756 90.7423 14.756Z" fill="white"/>
<line x1="103.5" y1="2.18557e-08" x2="103.5" y2="35" stroke="white"/>
<path d="M112.01 13.5C111.898 13.5 111.809 13.4767 111.744 13.43C111.688 13.374 111.646 13.2853 111.618 13.164L109.7 4.148C109.691 4.11067 109.681 4.078 109.672 4.05C109.672 4.01267 109.672 3.98933 109.672 3.98C109.672 3.90533 109.7 3.84 109.756 3.784C109.812 3.728 109.877 3.7 109.952 3.7H110.246C110.423 3.7 110.526 3.77 110.554 3.91L112.192 11.89L113.928 6.192C113.956 6.108 114.003 6.03333 114.068 5.968C114.143 5.90267 114.241 5.87 114.362 5.87H114.67C114.801 5.87 114.899 5.90267 114.964 5.968C115.029 6.03333 115.076 6.108 115.104 6.192L116.84 11.89L118.478 3.91C118.506 3.77 118.609 3.7 118.786 3.7H119.08C119.155 3.7 119.22 3.728 119.276 3.784C119.332 3.84 119.36 3.90533 119.36 3.98C119.36 3.98933 119.355 4.01267 119.346 4.05C119.346 4.078 119.341 4.11067 119.332 4.148L117.414 13.164C117.386 13.2853 117.339 13.374 117.274 13.43C117.218 13.4767 117.134 13.5 117.022 13.5H116.812C116.7 13.5 116.607 13.472 116.532 13.416C116.467 13.36 116.415 13.276 116.378 13.164L114.516 7.256L112.654 13.164C112.617 13.276 112.561 13.36 112.486 13.416C112.421 13.472 112.332 13.5 112.22 13.5H112.01ZM121.489 13.5C121.396 13.5 121.321 13.472 121.265 13.416C121.209 13.36 121.181 13.2853 121.181 13.192V3.868C121.181 3.77467 121.209 3.7 121.265 3.644C121.321 3.588 121.396 3.56 121.489 3.56H121.727C121.821 3.56 121.895 3.588 121.951 3.644C122.007 3.7 122.035 3.77467 122.035 3.868V7.186C122.287 6.85933 122.591 6.59333 122.945 6.388C123.309 6.18267 123.79 6.08 124.387 6.08C125.022 6.08 125.549 6.22 125.969 6.5C126.399 6.77067 126.716 7.144 126.921 7.62C127.136 8.08667 127.243 8.61867 127.243 9.216V13.192C127.243 13.2853 127.215 13.36 127.159 13.416C127.103 13.472 127.029 13.5 126.935 13.5H126.697C126.604 13.5 126.529 13.472 126.473 13.416C126.417 13.36 126.389 13.2853 126.389 13.192V9.286C126.389 8.53933 126.207 7.956 125.843 7.536C125.479 7.10667 124.947 6.892 124.247 6.892C123.585 6.892 123.048 7.10667 122.637 7.536C122.236 7.956 122.035 8.53933 122.035 9.286V13.192C122.035 13.2853 122.007 13.36 121.951 13.416C121.895 13.472 121.821 13.5 121.727 13.5H121.489ZM132.141 13.64C131.235 13.64 130.517 13.346 129.985 12.758C129.453 12.1607 129.149 11.3813 129.075 10.42C129.065 10.28 129.061 10.0933 129.061 9.86C129.061 9.62667 129.065 9.44 129.075 9.3C129.121 8.66533 129.271 8.10533 129.523 7.62C129.775 7.13467 130.12 6.75667 130.559 6.486C131.007 6.21533 131.534 6.08 132.141 6.08C132.794 6.08 133.349 6.22467 133.807 6.514C134.264 6.80333 134.614 7.21867 134.857 7.76C135.109 8.30133 135.235 8.94533 135.235 9.692V9.902C135.235 9.99533 135.202 10.07 135.137 10.126C135.081 10.182 135.006 10.21 134.913 10.21H129.929C129.929 10.21 129.929 10.2287 129.929 10.266C129.929 10.3033 129.929 10.3313 129.929 10.35C129.947 10.77 130.045 11.1713 130.223 11.554C130.4 11.9273 130.652 12.2353 130.979 12.478C131.305 12.7113 131.693 12.828 132.141 12.828C132.542 12.828 132.873 12.7673 133.135 12.646C133.405 12.5247 133.62 12.394 133.779 12.254C133.937 12.1047 134.04 11.9927 134.087 11.918C134.171 11.7967 134.236 11.7267 134.283 11.708C134.329 11.68 134.404 11.666 134.507 11.666H134.731C134.815 11.666 134.885 11.694 134.941 11.75C135.006 11.7967 135.034 11.862 135.025 11.946C135.015 12.0767 134.941 12.24 134.801 12.436C134.67 12.6227 134.479 12.8093 134.227 12.996C133.984 13.1827 133.685 13.3367 133.331 13.458C132.976 13.5793 132.579 13.64 132.141 13.64ZM129.929 9.426H134.381V9.37C134.381 8.90333 134.292 8.48333 134.115 8.11C133.937 7.73667 133.681 7.44267 133.345 7.228C133.009 7.004 132.607 6.892 132.141 6.892C131.674 6.892 131.273 7.004 130.937 7.228C130.61 7.44267 130.358 7.73667 130.181 8.11C130.013 8.48333 129.929 8.90333 129.929 9.37V9.426ZM137.389 13.5C137.296 13.5 137.221 13.472 137.165 13.416C137.109 13.36 137.081 13.2853 137.081 13.192V6.528C137.081 6.43467 137.109 6.36 137.165 6.304C137.221 6.248 137.296 6.22 137.389 6.22H137.627C137.721 6.22 137.795 6.248 137.851 6.304C137.907 6.36 137.935 6.43467 137.935 6.528V7.186C138.187 6.85933 138.491 6.59333 138.845 6.388C139.209 6.18267 139.69 6.08 140.287 6.08C140.922 6.08 141.449 6.22 141.869 6.5C142.299 6.77067 142.616 7.144 142.821 7.62C143.036 8.08667 143.143 8.61867 143.143 9.216V13.192C143.143 13.2853 143.115 13.36 143.059 13.416C143.003 13.472 142.929 13.5 142.835 13.5H142.597C142.504 13.5 142.429 13.472 142.373 13.416C142.317 13.36 142.289 13.2853 142.289 13.192V9.286C142.289 8.53933 142.107 7.956 141.743 7.536C141.379 7.10667 140.847 6.892 140.147 6.892C139.485 6.892 138.948 7.10667 138.537 7.536C138.136 7.956 137.935 8.53933 137.935 9.286V13.192C137.935 13.2853 137.907 13.36 137.851 13.416C137.795 13.472 137.721 13.5 137.627 13.5H137.389ZM149.256 13.5C149.163 13.5 149.088 13.472 149.032 13.416C148.976 13.36 148.948 13.2853 148.948 13.192V6.528C148.948 6.43467 148.976 6.36 149.032 6.304C149.088 6.248 149.163 6.22 149.256 6.22H149.494C149.588 6.22 149.662 6.248 149.718 6.304C149.774 6.36 149.802 6.43467 149.802 6.528V7.186C150.054 6.85933 150.358 6.59333 150.712 6.388C151.076 6.18267 151.557 6.08 152.154 6.08C152.789 6.08 153.316 6.22 153.736 6.5C154.166 6.77067 154.483 7.144 154.688 7.62C154.903 8.08667 155.01 8.61867 155.01 9.216V13.192C155.01 13.2853 154.982 13.36 154.926 13.416C154.87 13.472 154.796 13.5 154.702 13.5H154.464C154.371 13.5 154.296 13.472 154.24 13.416C154.184 13.36 154.156 13.2853 154.156 13.192V9.286C154.156 8.53933 153.974 7.956 153.61 7.536C153.246 7.10667 152.714 6.892 152.014 6.892C151.352 6.892 150.815 7.10667 150.404 7.536C150.003 7.956 149.802 8.53933 149.802 9.286V13.192C149.802 13.2853 149.774 13.36 149.718 13.416C149.662 13.472 149.588 13.5 149.494 13.5H149.256ZM159.166 13.64C158.718 13.64 158.303 13.5467 157.92 13.36C157.547 13.1733 157.244 12.926 157.01 12.618C156.777 12.3007 156.66 11.946 156.66 11.554C156.66 10.9193 156.917 10.4107 157.43 10.028C157.944 9.64533 158.611 9.398 159.432 9.286L161.644 8.978V8.488C161.644 7.99333 161.49 7.606 161.182 7.326C160.884 7.03667 160.403 6.892 159.74 6.892C159.255 6.892 158.863 6.99 158.564 7.186C158.266 7.37267 158.06 7.62 157.948 7.928C157.902 8.068 157.813 8.138 157.682 8.138H157.458C157.346 8.138 157.267 8.11 157.22 8.054C157.174 7.98867 157.15 7.914 157.15 7.83C157.15 7.69933 157.197 7.536 157.29 7.34C157.393 7.144 157.547 6.95267 157.752 6.766C157.958 6.57 158.224 6.40667 158.55 6.276C158.877 6.14533 159.274 6.08 159.74 6.08C160.291 6.08 160.744 6.15467 161.098 6.304C161.462 6.45333 161.742 6.64933 161.938 6.892C162.144 7.12533 162.288 7.38667 162.372 7.676C162.456 7.96533 162.498 8.25 162.498 8.53V13.192C162.498 13.2853 162.47 13.36 162.414 13.416C162.358 13.472 162.284 13.5 162.19 13.5H161.952C161.859 13.5 161.784 13.472 161.728 13.416C161.672 13.36 161.644 13.2853 161.644 13.192V12.534C161.532 12.702 161.374 12.87 161.168 13.038C160.963 13.206 160.697 13.3507 160.37 13.472C160.053 13.584 159.652 13.64 159.166 13.64ZM159.306 12.828C159.736 12.828 160.128 12.7347 160.482 12.548C160.837 12.3613 161.117 12.0767 161.322 11.694C161.537 11.302 161.644 10.812 161.644 10.224V9.748L159.838 10C159.073 10.1027 158.494 10.28 158.102 10.532C157.71 10.784 157.514 11.1013 157.514 11.484C157.514 11.792 157.603 12.044 157.78 12.24C157.958 12.436 158.182 12.5853 158.452 12.688C158.732 12.7813 159.017 12.828 159.306 12.828ZM167.094 13.5C166.608 13.5 166.226 13.3973 165.946 13.192C165.666 12.9867 165.47 12.7067 165.358 12.352C165.246 11.9973 165.19 11.6007 165.19 11.162V7.032H164.098C164.004 7.032 163.93 7.004 163.874 6.948C163.818 6.892 163.79 6.81733 163.79 6.724V6.528C163.79 6.43467 163.818 6.36 163.874 6.304C163.93 6.248 164.004 6.22 164.098 6.22H165.19V3.868C165.19 3.77467 165.218 3.7 165.274 3.644C165.33 3.588 165.404 3.56 165.498 3.56H165.736C165.829 3.56 165.904 3.588 165.96 3.644C166.016 3.7 166.044 3.77467 166.044 3.868V6.22H167.78C167.873 6.22 167.948 6.248 168.004 6.304C168.06 6.36 168.088 6.43467 168.088 6.528V6.724C168.088 6.81733 168.06 6.892 168.004 6.948C167.948 7.004 167.873 7.032 167.78 7.032H166.044V11.106C166.044 11.6007 166.123 11.988 166.282 12.268C166.45 12.548 166.744 12.688 167.164 12.688H167.92C168.013 12.688 168.088 12.716 168.144 12.772C168.2 12.828 168.228 12.9027 168.228 12.996V13.192C168.228 13.2853 168.2 13.36 168.144 13.416C168.088 13.472 168.013 13.5 167.92 13.5H167.094ZM172.405 13.64C171.77 13.64 171.243 13.5047 170.823 13.234C170.412 12.954 170.104 12.576 169.899 12.1C169.703 11.624 169.605 11.092 169.605 10.504V6.528C169.605 6.43467 169.633 6.36 169.689 6.304C169.745 6.248 169.82 6.22 169.913 6.22H170.151C170.244 6.22 170.319 6.248 170.375 6.304C170.431 6.36 170.459 6.43467 170.459 6.528V10.434C170.459 12.03 171.154 12.828 172.545 12.828C173.208 12.828 173.74 12.618 174.141 12.198C174.542 11.7687 174.743 11.1807 174.743 10.434V6.528C174.743 6.43467 174.771 6.36 174.827 6.304C174.883 6.248 174.958 6.22 175.051 6.22H175.289C175.382 6.22 175.457 6.248 175.513 6.304C175.569 6.36 175.597 6.43467 175.597 6.528V13.192C175.597 13.2853 175.569 13.36 175.513 13.416C175.457 13.472 175.382 13.5 175.289 13.5H175.051C174.958 13.5 174.883 13.472 174.827 13.416C174.771 13.36 174.743 13.2853 174.743 13.192V12.534C174.491 12.8607 174.188 13.1267 173.833 13.332C173.488 13.5373 173.012 13.64 172.405 13.64ZM178.172 13.5C178.079 13.5 178.004 13.472 177.948 13.416C177.892 13.36 177.864 13.2853 177.864 13.192V6.542C177.864 6.44867 177.892 6.374 177.948 6.318C178.004 6.25267 178.079 6.22 178.172 6.22H178.396C178.49 6.22 178.564 6.25267 178.62 6.318C178.686 6.374 178.718 6.44867 178.718 6.542V7.186C178.886 6.85933 179.129 6.61667 179.446 6.458C179.764 6.29933 180.156 6.22 180.622 6.22H181.14C181.234 6.22 181.308 6.248 181.364 6.304C181.42 6.36 181.448 6.43467 181.448 6.528V6.724C181.448 6.81733 181.42 6.892 181.364 6.948C181.308 7.004 181.234 7.032 181.14 7.032H180.538C179.978 7.032 179.535 7.19533 179.208 7.522C178.882 7.84867 178.718 8.292 178.718 8.852V13.192C178.718 13.2853 178.686 13.36 178.62 13.416C178.564 13.472 178.49 13.5 178.396 13.5H178.172ZM185.27 13.64C184.364 13.64 183.646 13.346 183.114 12.758C182.582 12.1607 182.278 11.3813 182.204 10.42C182.194 10.28 182.19 10.0933 182.19 9.86C182.19 9.62667 182.194 9.44 182.204 9.3C182.25 8.66533 182.4 8.10533 182.652 7.62C182.904 7.13467 183.249 6.75667 183.688 6.486C184.136 6.21533 184.663 6.08 185.27 6.08C185.923 6.08 186.478 6.22467 186.936 6.514C187.393 6.80333 187.743 7.21867 187.986 7.76C188.238 8.30133 188.364 8.94533 188.364 9.692V9.902C188.364 9.99533 188.331 10.07 188.266 10.126C188.21 10.182 188.135 10.21 188.042 10.21H183.058C183.058 10.21 183.058 10.2287 183.058 10.266C183.058 10.3033 183.058 10.3313 183.058 10.35C183.076 10.77 183.174 11.1713 183.352 11.554C183.529 11.9273 183.781 12.2353 184.108 12.478C184.434 12.7113 184.822 12.828 185.27 12.828C185.671 12.828 186.002 12.7673 186.264 12.646C186.534 12.5247 186.749 12.394 186.908 12.254C187.066 12.1047 187.169 11.9927 187.216 11.918C187.3 11.7967 187.365 11.7267 187.412 11.708C187.458 11.68 187.533 11.666 187.636 11.666H187.86C187.944 11.666 188.014 11.694 188.07 11.75C188.135 11.7967 188.163 11.862 188.154 11.946C188.144 12.0767 188.07 12.24 187.93 12.436C187.799 12.6227 187.608 12.8093 187.356 12.996C187.113 13.1827 186.814 13.3367 186.46 13.458C186.105 13.5793 185.708 13.64 185.27 13.64ZM183.058 9.426H187.51V9.37C187.51 8.90333 187.421 8.48333 187.244 8.11C187.066 7.73667 186.81 7.44267 186.474 7.228C186.138 7.004 185.736 6.892 185.27 6.892C184.803 6.892 184.402 7.004 184.066 7.228C183.739 7.44267 183.487 7.73667 183.31 8.11C183.142 8.48333 183.058 8.90333 183.058 9.37V9.426ZM112.892 30.64C112.239 30.64 111.683 30.514 111.226 30.262C110.769 30.0007 110.419 29.6273 110.176 29.142C109.943 28.6567 109.817 28.0827 109.798 27.42C109.789 27.28 109.784 27.0933 109.784 26.86C109.784 26.6267 109.789 26.44 109.798 26.3C109.817 25.628 109.943 25.054 110.176 24.578C110.419 24.0927 110.769 23.724 111.226 23.472C111.683 23.2107 112.239 23.08 112.892 23.08C113.387 23.08 113.811 23.15 114.166 23.29C114.53 23.4207 114.829 23.598 115.062 23.822C115.295 24.0367 115.473 24.2747 115.594 24.536C115.715 24.7973 115.781 25.054 115.79 25.306C115.799 25.3993 115.771 25.474 115.706 25.53C115.641 25.586 115.566 25.614 115.482 25.614H115.286C115.193 25.614 115.123 25.5953 115.076 25.558C115.039 25.5113 114.997 25.432 114.95 25.32C114.754 24.788 114.483 24.4193 114.138 24.214C113.802 23.9993 113.387 23.892 112.892 23.892C112.257 23.892 111.73 24.088 111.31 24.48C110.899 24.8627 110.68 25.4927 110.652 26.37C110.633 26.6967 110.633 27.0233 110.652 27.35C110.68 28.2273 110.899 28.862 111.31 29.254C111.73 29.6367 112.257 29.828 112.892 29.828C113.387 29.828 113.802 29.7253 114.138 29.52C114.483 29.3053 114.754 28.932 114.95 28.4C114.997 28.288 115.039 28.2133 115.076 28.176C115.123 28.1293 115.193 28.106 115.286 28.106H115.482C115.566 28.106 115.641 28.134 115.706 28.19C115.771 28.246 115.799 28.3207 115.79 28.414C115.781 28.6193 115.739 28.8247 115.664 29.03C115.589 29.2353 115.473 29.436 115.314 29.632C115.165 29.828 114.978 30.0007 114.754 30.15C114.53 30.2993 114.259 30.416 113.942 30.5C113.634 30.5933 113.284 30.64 112.892 30.64ZM119.6 30.64C119.152 30.64 118.737 30.5467 118.354 30.36C117.981 30.1733 117.677 29.926 117.444 29.618C117.211 29.3007 117.094 28.946 117.094 28.554C117.094 27.9193 117.351 27.4107 117.864 27.028C118.377 26.6453 119.045 26.398 119.866 26.286L122.078 25.978V25.488C122.078 24.9933 121.924 24.606 121.616 24.326C121.317 24.0367 120.837 23.892 120.174 23.892C119.689 23.892 119.297 23.99 118.998 24.186C118.699 24.3727 118.494 24.62 118.382 24.928C118.335 25.068 118.247 25.138 118.116 25.138H117.892C117.78 25.138 117.701 25.11 117.654 25.054C117.607 24.9887 117.584 24.914 117.584 24.83C117.584 24.6993 117.631 24.536 117.724 24.34C117.827 24.144 117.981 23.9527 118.186 23.766C118.391 23.57 118.657 23.4067 118.984 23.276C119.311 23.1453 119.707 23.08 120.174 23.08C120.725 23.08 121.177 23.1547 121.532 23.304C121.896 23.4533 122.176 23.6493 122.372 23.892C122.577 24.1253 122.722 24.3867 122.806 24.676C122.89 24.9653 122.932 25.25 122.932 25.53V30.192C122.932 30.2853 122.904 30.36 122.848 30.416C122.792 30.472 122.717 30.5 122.624 30.5H122.386C122.293 30.5 122.218 30.472 122.162 30.416C122.106 30.36 122.078 30.2853 122.078 30.192V29.534C121.966 29.702 121.807 29.87 121.602 30.038C121.397 30.206 121.131 30.3507 120.804 30.472C120.487 30.584 120.085 30.64 119.6 30.64ZM119.74 29.828C120.169 29.828 120.561 29.7347 120.916 29.548C121.271 29.3613 121.551 29.0767 121.756 28.694C121.971 28.302 122.078 27.812 122.078 27.224V26.748L120.272 27C119.507 27.1027 118.928 27.28 118.536 27.532C118.144 27.784 117.948 28.1013 117.948 28.484C117.948 28.792 118.037 29.044 118.214 29.24C118.391 29.436 118.615 29.5853 118.886 29.688C119.166 29.7813 119.451 29.828 119.74 29.828ZM125.468 30.5C125.374 30.5 125.3 30.472 125.244 30.416C125.188 30.36 125.16 30.2853 125.16 30.192V20.868C125.16 20.7747 125.188 20.7 125.244 20.644C125.3 20.588 125.374 20.56 125.468 20.56H125.706C125.799 20.56 125.874 20.588 125.93 20.644C125.986 20.7 126.014 20.7747 126.014 20.868V30.192C126.014 30.2853 125.986 30.36 125.93 30.416C125.874 30.472 125.799 30.5 125.706 30.5H125.468ZM128.612 30.5C128.519 30.5 128.444 30.472 128.388 30.416C128.332 30.36 128.304 30.2853 128.304 30.192V20.868C128.304 20.7747 128.332 20.7 128.388 20.644C128.444 20.588 128.519 20.56 128.612 20.56H128.85C128.944 20.56 129.018 20.588 129.074 20.644C129.13 20.7 129.158 20.7747 129.158 20.868V30.192C129.158 30.2853 129.13 30.36 129.074 30.416C129.018 30.472 128.944 30.5 128.85 30.5H128.612ZM133.745 30.64C133.259 30.64 132.839 30.5747 132.485 30.444C132.139 30.3133 131.855 30.1593 131.631 29.982C131.407 29.7953 131.239 29.6133 131.127 29.436C131.024 29.2587 130.968 29.1233 130.959 29.03C130.949 28.9273 130.982 28.8527 131.057 28.806C131.131 28.75 131.201 28.722 131.267 28.722H131.477C131.533 28.722 131.579 28.7313 131.617 28.75C131.663 28.7687 131.719 28.82 131.785 28.904C131.906 29.0627 132.046 29.2167 132.205 29.366C132.363 29.506 132.564 29.618 132.807 29.702C133.059 29.786 133.371 29.828 133.745 29.828C134.305 29.828 134.767 29.7207 135.131 29.506C135.495 29.2913 135.677 28.974 135.677 28.554C135.677 28.2927 135.602 28.0827 135.453 27.924C135.313 27.7653 135.07 27.6253 134.725 27.504C134.379 27.3827 133.913 27.2567 133.325 27.126C132.737 26.986 132.284 26.818 131.967 26.622C131.659 26.426 131.449 26.202 131.337 25.95C131.225 25.6887 131.169 25.4087 131.169 25.11C131.169 24.7833 131.262 24.466 131.449 24.158C131.635 23.8407 131.911 23.584 132.275 23.388C132.648 23.1827 133.115 23.08 133.675 23.08C134.132 23.08 134.519 23.1407 134.837 23.262C135.163 23.3833 135.429 23.5327 135.635 23.71C135.84 23.878 135.989 24.046 136.083 24.214C136.185 24.382 136.241 24.5173 136.251 24.62C136.26 24.7133 136.232 24.788 136.167 24.844C136.101 24.9 136.027 24.928 135.943 24.928H135.733C135.658 24.928 135.597 24.914 135.551 24.886C135.504 24.8487 135.462 24.802 135.425 24.746C135.331 24.5967 135.219 24.4567 135.089 24.326C134.958 24.1953 134.781 24.0927 134.557 24.018C134.342 23.934 134.048 23.892 133.675 23.892C133.115 23.892 132.699 24.0087 132.429 24.242C132.158 24.466 132.023 24.7553 132.023 25.11C132.023 25.3153 132.079 25.4973 132.191 25.656C132.303 25.8053 132.513 25.9453 132.821 26.076C133.129 26.1973 133.577 26.328 134.165 26.468C134.762 26.5987 135.233 26.762 135.579 26.958C135.924 27.1447 136.167 27.3687 136.307 27.63C136.456 27.8913 136.531 28.1993 136.531 28.554C136.531 28.9273 136.423 29.2727 136.209 29.59C136.003 29.9073 135.691 30.164 135.271 30.36C134.86 30.5467 134.351 30.64 133.745 30.64Z" fill="white"/>
</svg>
